<svg viewBox="0 0 24 24">
    <path fill-rule="evenodd" clip-rule="evenodd" d="M9.5 8H5.8L3 11.7v3.8c0 .3-.2.5-.5.5H2v1h.5c.3 0 .5.2.5.5s-.2.5-.5.5h-1c-.3 0-.5-.2-.5-.5v-2c0-.3.2-.5.5-.5H2v-3.5c0-.1 0-.2.1-.3l3-4c.1-.1.2-.2.4-.2H9V5.5c0-.8.7-1.5 1.5-1.5s1.5.7 1.5 1.5V7h9.5c.05 0 .125.025.2.05.075.025.15.05.2.05l1 1c0 .05.025.125.05.2.025.075.05.15.05.2v6.68c.064.084.1.193.1.32v2c-.1.3-.3.5-.6.5h-1c-.3 0-.5-.2-.5-.5s.2-.5.5-.5h.5v-1H6.5c-.1 0-.2 0-.2-.1l-2-1c-.3-.1-.4-.4-.2-.6.1-.2.4-.3.7-.2l1.9.9H22V8.7l-.7-.7H9.5zM11 7V5.5c0-.3-.2-.5-.5-.5s-.5.2-.5.5V7h1zm-6.5 6h3c.3 0 .5-.2.5-.5v-3c0-.3-.2-.5-.5-.5h-1c-.2 0-.3.1-.4.2l-2 3c-.1.1-.1.3 0 .5 0 .2.2.3.4.3zM7 12H5.4l1.4-2H7v2zm-2 9c-1.1 0-2-.9-2-2s.9-2 2-2 2 .9 2 2-.9 2-2 2zm0-3c-.6 0-1 .4-1 1s.4 1 1 1 1-.4 1-1-.4-1-1-1zm12 1c0 1.1.9 2 2 2s2-.9 2-2-.9-2-2-2-2 .9-2 2zm1 0c0-.6.4-1 1-1s1 .4 1 1-.4 1-1 1-1-.4-1-1zm-1-1.5c0 .3-.2.5-.5.5h-9c-.3 0-.5-.2-.5-.5s.2-.5.5-.5h9c.3 0 .5.2.5.5zm1-4c0 .3.2.5.5.5s.5-.2.5-.5v-1.171l1 .571c0 .1.1.1.2.1.2 0 .4-.1.5-.3.1-.3 0-.6-.2-.7l-.825-.472L20.6 11c.3-.2.3-.5.2-.7-.2-.3-.5-.3-.7-.2l-1.1.629V9.5c0-.3-.2-.5-.5-.5s-.5.2-.5.5v1.071L17 10c-.3-.1-.6 0-.7.2-.1.3 0 .6.2.7l1.1.628-1 .572c-.3.2-.3.5-.2.7.1.1.2.2.4.2h.3l.9-.514V13.5zm-3.5-.5h-4c-.3 0-.5-.2-.5-.5v-3c0-.3.2-.5.5-.5h4c.3 0 .5.2.5.5v3c0 .3-.2.5-.5.5zM11 12h3v-2h-3v2z"/>
</svg>
