<svg viewBox="0 0 21 24">
    <path d="M6.5 7.488a1 1 0 110-2 1 1 0 010 2zm0-1l.5.001h-.5zm7 6.49h-2a.504.504 0 01-.354-.145l-1-.998a.499.499 0 11.707-.706l.854.852h1.586l.854-.853a.499.499 0 11.707.706l-1 .998a.5.5 0 01-.354.147zm-2 7.988a.503.503 0 01-.354-.146l-1-.998a.502.502 0 01-.146-.354v-3.993c0-.133.053-.26.146-.354l1-.998a.499.499 0 11.707.706l-.853.853v3.58l.854.852a.499.499 0 01-.354.852zm1-1.997a.5.5 0 01-.5-.499v-1.997c0-.133.053-.26.146-.353l4-3.994a.499.499 0 11.707.706L13 16.68v1.79a.5.5 0 01-.5.5zm-1 2.496a1 1 0 110-1.999 1 1 0 010 2zm0-1l.5.002-.5-.001zm3-.497a.5.5 0 01-.5-.5v-1.996c0-.133.053-.26.146-.354l1-.998a.499.499 0 11.707.706l-.853.852v1.79a.5.5 0 01-.5.5zm-1-14.477a1 1 0 110-1.999 1 1 0 010 2zm5.01 12.079a.498.498 0 01.137-.45l.281-.281-.402-1.205a.5.5 0 01.372-.646c.54-.114 1.058-.38 1.104-.519-.037-.392-1.146-2.507-2.152-4.233a.507.507 0 01-.053-.371c.001-.01.203-.85.203-2.377 0-1.374-2.126-6.49-8.5-6.49C3.078.998 1 6.043 1 8.486c0 2.226 1.4 4.65 2.525 6.597C4.35 16.51 5 17.637 5 18.47c0 1.888-2.812 4.984-3.133 5.33a.496.496 0 01-.706.028.497.497 0 01-.028-.705C1.93 22.26 4 19.741 4 18.47c0-.565-.651-1.693-1.341-2.888C1.475 13.532 0 10.978 0 8.486 0 4.963 2.947 0 9.5 0 16.174 0 19 5.356 19 7.488c0 1.23-.122 2.051-.19 2.41.729 1.26 2.19 3.87 2.19 4.578 0 .732-.785 1.14-1.359 1.338l.334 1c.06.18.013.378-.121.512l-.412.411a.499.499 0 01-.505.729c.063.092.082.129.184.28.15.224.379.564.379 1.222 0 1.513-1.688 1.789-2.919 1.99-1.643.268-3.418 1.225-3.595 1.582 0 .275-.216.46-.493.46-.276 0-.493-.263-.493-.538 0-1.166 3.098-2.273 4.419-2.49 1.932-.316 2.081-.615 2.081-1.004 0-.354-.088-.485-.21-.666-.122-.183-.29-.433-.29-.832 0-.405.172-.643.315-.77a.883.883 0 01.195-.13zM8.5 23.96a.5.5 0 01-.5-.5V12.687L5.146 9.838A.502.502 0 015 9.485V7.488c0-.133.053-.26.146-.354l1-.998a.499.499 0 11.707.706L6 7.694v1.584l2.854 2.85c.093.092.146.219.146.352v10.982a.5.5 0 01-.5.5zm7-13.977h-7a.504.504 0 01-.354-.146l-1-.998a.499.499 0 11.707-.706l.854.851H15.5a.5.5 0 110 .999zm-1-1.997h-3a.5.5 0 110-.998h2.793l.854-.853a.499.499 0 11.707.706l-1 .998a.5.5 0 01-.354.147zm-5-.998a.499.499 0 01-.354-.852l1-.998a.5.5 0 01.354-.147h1.793l.854-.853a.499.499 0 11.707.706l-1 .999a.5.5 0 01-.354.146h-1.793l-.854.853a.499.499 0 01-.353.146zm-3 16.972a.5.5 0 01-.5-.5v-9.776l-2.854-2.85A.498.498 0 013 10.483V5.491c0-.133.053-.26.146-.353l2-1.997a.504.504 0 01.354-.146h2c.133 0 .26.053.354.146l1 .998a.499.499 0 11-.707.706l-.854-.851H5.707L4 5.698v4.578l2.854 2.85c.093.093.146.22.146.352v9.984a.5.5 0 01-.5.5z"/>
</svg>
