<svg viewBox="0 0 24 24">
    <path fill-rule="evenodd" d="M15.158 17.216a.525.525 0 01.73-.077c.223.18.26.5.083.724-.044.058-1.122 1.387-3.97 1.387-2.839 0-3.927-1.33-3.972-1.386a.522.522 0 01.087-.73.522.522 0 01.726.083c.007.009.864.994 3.158.994 2.3 0 3.15-.984 3.158-.995zm-5.95-3.717c-.017-.022-.468-.584-1.167-.584-.692 0-1.152.564-1.171.588a.524.524 0 01-.726.098.522.522 0 01-.103-.726c.079-.103.797-.999 1.999-.999 1.203 0 1.921.896 2 1a.522.522 0 01-.415.831.514.514 0 01-.416-.207h-.001zm6.75-1.623c1.235 0 1.969.959 1.998 1a.515.515 0 01-.102.726.519.519 0 01-.728-.101c-.017-.024-.47-.585-1.167-.585-.692 0-1.152.563-1.172.586a.52.52 0 01-.828-.627c.03-.04.764-.998 1.999-.998zM12 22.17c4.434 0 8.152-3.187 8.844-7.576.039-.254.277-.439.541-.438l.084.009.001.124v-.124c.822 0 1.491-.662 1.491-1.477a1.48 1.48 0 00-1.478-1.48c-.085 0-.171.014-.249.026a.523.523 0 01-.587-.377 8.971 8.971 0 00-4.565-5.65v.856a.52.52 0 11-1.038 0V4.749a9.013 9.013 0 00-1.337-.375v.897a.52.52 0 01-1.039 0V4.232a8.513 8.513 0 00-1.336 0v1.039a.52.52 0 01-1.04 0v-.897a8.824 8.824 0 00-1.335.375v1.313a.52.52 0 01-1.04 0v-.856a8.974 8.974 0 00-4.564 5.649.515.515 0 01-.59.377 1.6 1.6 0 00-.247-.025 1.48 1.48 0 000 2.961l.095-.013h.033c.257 0 .473.185.513.438.691 4.389 4.41 7.576 8.843 7.576zm11.248-11.273c.485.476.752 1.113.752 1.792a2.535 2.535 0 01-2.207 2.501c-.939 4.652-5.043 8.019-9.793 8.019a10.005 10.005 0 01-9.792-8.019A2.535 2.535 0 010 12.688c0-.675.27-1.312.76-1.792a2.531 2.531 0 011.71-.727 10.011 10.011 0 015.447-6.12V2.103a.52.52 0 011.04 0v1.544a9.973 9.973 0 011.335-.331V1.312a.52.52 0 011.04 0V3.19c.448-.029.888-.029 1.336 0V1.312a.52.52 0 011.039 0v2.004c.45.079.898.189 1.337.331V2.103a.519.519 0 111.038 0v1.946a10.005 10.005 0 015.447 6.121 2.505 2.505 0 011.719.726z"/>
</svg>
