<svg viewBox="0 0 24 24">
    <path fill-rule="evenodd" d="M19.253 11.325a4.655 4.655 0 01-6.577 0 4.657 4.657 0 010-6.577 4.635 4.635 0 013.288-1.36c1.192 0 2.382.453 3.29 1.36a4.618 4.618 0 011.362 3.288 4.62 4.62 0 01-1.363 3.289m.712-7.289a5.662 5.662 0 00-8 0 5.662 5.662 0 000 8 5.639 5.639 0 004 1.655 5.64 5.64 0 004-1.655 5.618 5.618 0 001.657-4c0-1.511-.589-2.932-1.657-4m-1.997 4.255a1.246 1.246 0 01.87 2.102.5.5 0 01-.711.02.502.502 0 01-.02-.71.24.24 0 000-.33.23.23 0 00-.175-.076.24.24 0 00-.166.066.503.503 0 11-.69-.733c.241-.228.548-.361.892-.339zm-2.499 1.72a.503.503 0 010 1.006 2.469 2.469 0 01-1.757-.728 2.47 2.47 0 01-.729-1.758.503.503 0 011.007 0c0 .396.155.767.434 1.047.278.279.65.433 1.045.433zM14.3 5.893a.502.502 0 11-.692-.73c.24-.23.553-.359.89-.34.333.008.643.147.871.39.455.479.455 1.231 0 1.712a.5.5 0 01-.711.02.502.502 0 01-.02-.71.24.24 0 000-.331c-.063-.067-.113-.081-.174-.075a.238.238 0 00-.164.064zm2.869 10.882l3.768-3.768a7.052 7.052 0 002.058-4.97c0-3.877-3.153-7.03-7.03-7.03h-.008c-1.848 0-3.655.75-4.962 2.057L7.131 6.929l-.168 1.177c-.002.016-.22 1.855.79 6.817 4.712 1.74 9.09 1.846 9.134 1.847l.28.005zm-4.162 4.16l3.192-3.19a32.7 32.7 0 01-8.185-1.66c.679 2.814 1.62 4.937 2.802 6.33a6.996 6.996 0 002.191-1.48zm-4.964 2.06a6.97 6.97 0 001.75-.234c-1.293-1.671-2.291-4.139-2.97-7.357-.973-4.678-.91-6.769-.869-7.299l-2.888 2.888a6.962 6.962 0 00-2.058 4.97c0 3.878 3.153 7.032 7.028 7.032h.007zM24 8.035a8.068 8.068 0 01-2.353 5.684l-3.91 3.91a.154.154 0 01-.019.018l-4 4a8.033 8.033 0 01-2.776 1.8.496.496 0 01-.215.076 7.98 7.98 0 01-2.684.478h-.008C3.605 24.001 0 20.396 0 15.964a7.959 7.959 0 012.354-5.682l7.929-7.929A8.068 8.068 0 0115.956 0h.01C20.396 0 24 3.605 24 8.036z"/>
</svg>
