<svg viewBox="0 0 22 22">
    <path fill-rule="evenodd" d="M21.467.78a.47.47 0 01.033.17v5.742a.461.461 0 01-.466.467.458.458 0 01-.468-.46V2.093l-7.09 7.084a.439.439 0 01-.327.139.445.445 0 01-.33-.143.463.463 0 01.004-.658l7.082-7.083H15.3a.461.461 0 01-.468-.467c0-.261.205-.466.468-.466h5.734c.076 0 .127.012.182.04.046.013.104.05.153.1.043.044.071.088.098.141zM7.786 5.91a1.317 1.317 0 00-.232-1.565l-2.538-2.53a1.339 1.339 0 00-.933-.383c-.355 0-.687.136-.935.384L1.823 3.142a1.281 1.281 0 00-.385 1.018 17.94 17.94 0 0016.409 16.4c.373.024.752-.119 1.016-.384l1.326-1.326a1.31 1.31 0 00.385-.933c0-.348-.137-.68-.386-.936l-2.22-2.221a1.324 1.324 0 00-1.563-.225l-2.939 1.585a.42.42 0 01-.344.035 9.468 9.468 0 01-6.966-6.972.473.473 0 01.046-.336L7.786 5.91zm10.837 8.203l2.221 2.222c.424.415.656.977.656 1.582 0 .601-.235 1.167-.662 1.595l-1.318 1.319c-.42.426-.999.67-1.59.67-.055 0-.11 0-.165-.008A18.871 18.871 0 01.505 4.236a2.236 2.236 0 01.663-1.763l1.319-1.32c.848-.847 2.336-.847 3.184 0l2.537 2.538c.708.708.866 1.779.392 2.665l-1.492 2.78a8.58 8.58 0 006.077 6.077l2.773-1.492a2.274 2.274 0 012.665.392z"/>
</svg>
