<svg width="24" height="24" viewBox="0 0 24 24" xmlns="http://www.w3.org/2000/svg">
<path d="M6.13965 23V23.4419C6.13965 23.7501 6.38954 24 6.69779 24C7.00604 24 7.25593 23.7501 7.25593 23.4419V23H6.13965Z" />
<path d="M10.3301 3.84245L8.86352 1.43435L7.39694 3.84245C7.19835 4.16852 6.76629 4.26271 6.44915 4.04907L6.18154 3.8688L6.6577 7.07635C6.74986 7.69719 6.00886 8.08987 5.54358 7.66675L4.01511 6.27675L3.87436 6.6323C3.75685 6.92914 3.44482 7.10155 3.12983 7.04368L1.47602 6.73985L1.95913 8.69248C2.02303 8.95075 1.92685 9.22216 1.71434 9.38321L1.38316 9.63419L4.95649 12.6431V14.8504L4.52202 14.9053C4.01696 14.9691 3.62794 14.4704 3.81471 13.9986L4.07029 13.353L0.237412 10.1255C-0.0898506 9.84994 -0.0767783 9.34333 0.264263 9.08487L0.80512 8.67499L0.226705 6.33716C0.11031 5.86671 0.520181 5.43343 0.998477 5.5213L2.97078 5.88365L3.21443 5.26815C3.38656 4.83333 3.94253 4.70502 4.28905 5.02015L5.36996 6.00313L4.92889 3.03194C4.84366 2.4578 5.48401 2.05649 5.96662 2.3816L6.68588 2.86611L8.23582 0.321132C8.35725 0.121756 8.57435 0 8.80844 0H8.91859C9.15268 0 9.36979 0.121756 9.49121 0.321132L11.0412 2.86611L11.7604 2.3816C12.243 2.05649 12.8834 2.4578 12.7981 3.03194L12.3571 6.00314L13.438 5.02015C13.7845 4.70502 14.3405 4.83333 14.5126 5.26815L14.7563 5.88365L16.7286 5.5213C17.2068 5.43343 17.6167 5.86671 17.5003 6.33716L16.9219 8.67499L17.4628 9.08487C17.8038 9.34333 17.8169 9.84994 17.4896 10.1255L16.9682 10.5645H15.239L16.3439 9.63419L16.0127 9.38321C15.8002 9.22216 15.704 8.95075 15.7679 8.69248L16.251 6.73985L14.5972 7.04368C14.2822 7.10155 13.9702 6.92914 13.8527 6.6323L13.7119 6.27675L12.1835 7.66675C11.7182 8.08987 10.9772 7.69719 11.0693 7.07635L11.5455 3.8688L11.2779 4.04907C10.9607 4.26271 10.5287 4.16852 10.3301 3.84245Z" />
<path fill-rule="evenodd" clip-rule="evenodd" d="M22.3256 21.6851H7.25582L7.25593 23H6.13965L6.13954 13.3447C6.13954 12.4234 6.8892 11.6766 7.81395 11.6766H22.3256C23.2503 11.6766 24 12.4234 24 13.3447V20.017C24 20.9383 23.2503 21.6851 22.3256 21.6851ZM7.25582 13.3447C7.25582 13.0376 7.5057 12.7887 7.81395 12.7887H12.8372V16.1248H7.25582V13.3447ZM22.8837 13.9007H13.9535V12.7887H22.3256C22.6338 12.7887 22.8837 13.0376 22.8837 13.3447V13.9007ZM13.9535 15.0128H22.8837V16.1248H13.9535V15.0128ZM22.8837 17.2369V18.3489H7.25582V17.2369H22.8837ZM7.25582 19.461H22.8837V20.017C22.8837 20.3241 22.6338 20.5731 22.3256 20.5731H7.25582V19.461Z" />
</svg>
