<svg viewBox="0 0 24 24">
    <path d="M4.5 24h-3a.5.5 0 01-.5-.5v-6a.5.5 0 01.5-.5h3a.5.5 0 01.5.5v6a.5.5 0 01-.5.5zM2 23h2v-5H2v5zm8.5 1h-3a.5.5 0 01-.5-.5v-11a.5.5 0 01.5-.5h3a.5.5 0 01.5.5v11a.5.5 0 01-.5.5zM8 23h2V13H8v10zm8.5 1h-3a.5.5 0 01-.5-.5v-9a.5.5 0 01.5-.5h3a.5.5 0 01.5.5v9a.5.5 0 01-.5.5zM14 23h2v-8h-2v8zm8.5 1h-3a.5.5 0 01-.5-.5v-15a.5.5 0 01.5-.5h3a.5.5 0 01.5.5v15a.5.5 0 01-.5.5zM20 23h2V9h-2v14zM7.8 7.599L4.748 10.03A2.002 2.002 0 013 13c-1.103-.001-2-.898-2-2.001a2.002 2.002 0 013.057-1.697l3.117-2.486A2.002 2.002 0 019 4a2.002 2.002 0 012 2.05l2.442.697a1.997 1.997 0 012.574-.47l3.261-3.261A2.002 2.002 0 0121 0c1.103 0 2 .897 2 2a2.002 2.002 0 01-3.016 1.723l-3.261 3.261A2.002 2.002 0 0115 10a2.002 2.002 0 01-1.973-2.332l-2.302-.656a2 2 0 01-2.926.587zm-4.11 2.679A1.001 1.001 0 103 12a1.001 1.001 0 00.69-1.722zm4.548-3.63A1.001 1.001 0 109 5a1.001 1.001 0 00-.8 1.598.507.507 0 01.038.048zm12.075-3.922A1.001 1.001 0 1021 1a1.001 1.001 0 00-.726 1.687.506.506 0 01.04.04zM23.5 24H.5a.5.5 0 010-1h23a.5.5 0 010 1zM15 7a1.001 1.001 0 000 2 1.001 1.001 0 000-2z"/>
</svg>
