<svg viewBox="0 0 23 24">
    <path fill-rule="evenodd" d="M22.56 23.04H.48a.48.48 0 01-.48-.48V.48a.48.48 0 01.96 0v21.6h21.6a.48.48 0 010 .96zm-19.2-2.88a.48.48 0 01-.407-.734l2.4-3.84a.476.476 0 01.386-.225.448.448 0 01.405.192l1.012 1.349 5.392-8.988a.481.481 0 01.388-.234.515.515 0 01.409.192l2.446 3.261L22.146.238a.48.48 0 01.83.484l-6.72 11.52a.478.478 0 01-.799.046l-2.452-3.269-5.392 8.988a.485.485 0 01-.389.233.498.498 0 01-.408-.192l-1.02-1.36-2.029 3.246a.48.48 0 01-.407.226z"/>
</svg>
