<svg viewBox="0 0 24 24">
    <path fill-rule="evenodd" d="M9.997 21.645l-2.315-3.15-1.169 1.722 1.413.298.162.06 1.908 1.07zM7.04 17.268a.452.452 0 01.19-.198.56.56 0 01.417-.051.588.588 0 01.532.118c.157.14.187.349.075.516l3.747 5.099 3.748-5.1a.386.386 0 01.075-.517.59.59 0 01.532-.117.562.562 0 01.416.05c.088.05.153.12.19.198l4.856 2.042c.68.286 1.175.806 1.359 1.426l.808 2.719a.38.38 0 01-.095.375.552.552 0 01-.409.17H.52a.562.562 0 01-.41-.168.385.385 0 01-.095-.375l.808-2.719c.184-.62.679-1.14 1.359-1.426l4.856-2.043zm9.279 1.225l-2.314 3.149 1.907-1.07.162-.06 1.413-.297-1.169-1.722zm1.854-7.559l-.2-.009c.018.149.028.302.028.456 0 1.229-.572 2.163-1.338 2.205a8.27 8.27 0 01-.22.609c.82-.372 1.467-.908 1.467-1.624a.56.56 0 01.51-.57 15.034 15.034 0 01-.246-1.066zm-.138-.906A5.679 5.679 0 0118 9.443c0-.245.224-.444.5-.444s.5.199.5.444c0 1.436.898 4.613 1.854 5.463a.41.41 0 010 .628c-1.105.983-4.868 1.414-5.293 1.46l-.061.004c-.25 0-.465-.165-.496-.39a.39.39 0 01.026-.204c-.971 1.008-2.208 1.595-3.529 1.595-1.042 0-2.031-.365-2.879-1.013l-.12.013-.061-.003c-.425-.046-4.188-.477-5.293-1.46a.41.41 0 010-.628c.956-.851 1.854-4.028 1.854-5.464l.004-.058-.005-.21C5.001 5.77 7.917 3 11.501 3s6.5 2.771 6.5 6.176c0 .272-.023.548-.072.847l.107.007zm-1.018.795c-2.988-.456-5.898-2.168-7.27-3.488-.692 2.028-2.947 3.124-3.757 3.461-.04.183-.061.381-.061.584 0 .854.348 1.324.464 1.324a.54.54 0 01.272-.073l.163.029a.46.46 0 01.291.292c.65 2.491 2.411 4.164 4.382 4.164.99 0 1.927-.422 2.697-1.158-.248.027-.469.04-.651.04a.524.524 0 01-.323-.111 2.243 2.243 0 01-.722.111c-.869 0-1.5-.42-1.5-1 0-.58.631-1 1.5-1 .784 0 1.374.341 1.482.834a8.379 8.379 0 001.242-.221c.276-.497.5-1.054.658-1.659a.449.449 0 01.276-.303.481.481 0 01.42.034c.149.026.494-.45.494-1.303 0-.193-.019-.382-.055-.557zm-.011-.912a4.33 4.33 0 00.066-.736c0-2.92-2.499-5.294-5.571-5.294-3.073 0-5.571 2.374-5.571 5.294 0 .196.015.397.046.613 1.038-.514 2.951-1.727 2.951-3.693 0-.248.23-.449.512-.449.283 0 .512.201.512.449.136.522 3.393 3.194 7.055 3.816zm1.857 3.461c-.445 1.234-1.894 1.949-3.237 2.313a6.516 6.516 0 01-.387.49l.201-.063c1.275-.138 3.376-.507 4.343-.978-.348-.457-.659-1.082-.92-1.763zM5.33 12.836c-.295.883-.674 1.724-1.112 2.298.751.366 2.186.669 3.386.852a7.394 7.394 0 01-1.266-2.401c-.412-.023-.768-.303-1.009-.749zm7.908 10.286h9.576l-.646-2.175c-.11-.372-.409-.684-.816-.856l-3.848-1.619 1.228 1.808c.081.119.09.262.027.388s-.194.22-.353.253l-1.993.419-3.176 1.781zm-12.051 0h9.577L7.588 21.34l-1.993-.419a.508.508 0 01-.353-.253.376.376 0 01.027-.389l1.228-1.808-3.848 1.619c-.408.172-.705.484-.816.856l-.646 2.175z"/>
</svg>
