<svg viewBox="0 0 24 25">
    <path fill-rule="evenodd" d="M4.938 3.065v1.708h7.79V3.065a.515.515 0 00-.514-.514h-1.79a.48.48 0 01-.48-.48 1.112 1.112 0 00-2.208-.176.48.48 0 01-.446.656H5.453a.515.515 0 00-.515.514zm12.249 14.436a.48.48 0 01.48.481v3.977c0 1.142-.93 2.07-2.072 2.07H2.072A2.072 2.072 0 010 21.96V5.253c0-1.142.928-2.07 2.07-2.07h1.907v-.118c0-.813.66-1.474 1.475-1.474h1.366A2.073 2.073 0 018.834.001c.976 0 1.797.678 2.014 1.59h1.366c.813 0 1.474.661 1.474 1.474v.117h1.907c1.143 0 2.072.93 2.072 2.071v1.591a.48.48 0 01-.96 0v-1.59c0-.614-.5-1.112-1.112-1.112h-1.907v1.111a.479.479 0 01-.48.48h-8.75a.479.479 0 01-.48-.48v-1.11H2.072c-.613 0-1.112.497-1.112 1.11V21.96c0 .612.499 1.111 1.112 1.111h13.523c.613 0 1.112-.499 1.112-1.11v-3.978a.48.48 0 01.48-.48zm5.444-8.403a1.505 1.505 0 00-.01-2.075 1.522 1.522 0 00-2.136-.046l-1.76 1.76 2.133 2.134 1.773-1.773zm-8.38 8.386l5.929-5.933-2.134-2.135-5.922 5.921c.486.182.934.463 1.291.845.377.351.657.804.837 1.302zm-2.821-1.353l-.506 2.543 2.526-.502a2.413 2.413 0 00-.712-1.31 2.463 2.463 0 00-1.308-.73zm11.886-9.77c.913.962.912 2.458 0 3.41l-9.148 9.155a.47.47 0 01-.245.131l-3.517.7a.48.48 0 01-.565-.564l.702-3.517a.483.483 0 01.13-.246l7.024-7.023.009-.009.01-.009 2.098-2.099a2.485 2.485 0 013.502.07z"/>
</svg>
