<svg viewBox="0 0 24 24">
    <path d="M12 23.478a9.933 9.933 0 01-6.3-2.259.522.522 0 11.663-.804A8.885 8.885 0 0012 22.435a8.88 8.88 0 005.64-2.024.52.52 0 11.665.805A9.933 9.933 0 0112 23.478zm9.135-7.2a.52.52 0 01-.508-.644A8.885 8.885 0 0014.96 5.201a.523.523 0 01.348-.985 9.932 9.932 0 016.333 11.66.523.523 0 01-.507.4zm-18.27-.004a.522.522 0 01-.508-.4A9.925 9.925 0 018.742 4.2a.523.523 0 01.344.986A8.875 8.875 0 003.37 15.63a.522.522 0 01-.507.644zm17.483 6.16a3.656 3.656 0 01-3.652-3.651 3.656 3.656 0 013.652-3.653A3.656 3.656 0 0124 18.783a3.656 3.656 0 01-3.652 3.652zm0-6.26a2.612 2.612 0 00-2.609 2.609 2.612 2.612 0 002.609 2.608 2.612 2.612 0 002.609-2.608 2.612 2.612 0 00-2.61-2.61zM12 7.826a3.656 3.656 0 01-3.652-3.652A3.656 3.656 0 0112 .522a3.656 3.656 0 013.652 3.652A3.656 3.656 0 0112 7.826zm0-6.26a2.612 2.612 0 00-2.609 2.608A2.612 2.612 0 0012 6.783a2.612 2.612 0 002.609-2.61A2.612 2.612 0 0012 1.566zM3.652 22.434A3.656 3.656 0 010 18.783a3.656 3.656 0 013.652-3.653 3.656 3.656 0 013.652 3.653 3.656 3.656 0 01-3.652 3.652zm0-6.261a2.612 2.612 0 00-2.609 2.609 2.612 2.612 0 002.61 2.608 2.612 2.612 0 002.608-2.608 2.612 2.612 0 00-2.609-2.61z"/>
</svg>
