<svg viewBox="0 0 20 24">
    <path fill-rule="evenodd" d="M11.07 3.415v1.409a9.719 9.719 0 00-2.128 0V3.415h2.129zm6.336 10.963a.52.52 0 00.519.519h.639a8.5 8.5 0 01-.876 3.315l-.564-.325a.528.528 0 00-.395-.051.508.508 0 00-.315.242.515.515 0 00-.052.395.525.525 0 00.243.316l.563.322a8.647 8.647 0 01-1.09 1.339c-.4.4-.85.765-1.34 1.088l-.321-.561a.525.525 0 00-.711-.192.521.521 0 00-.191.71l.326.566a8.542 8.542 0 01-3.315.875v-.639a.52.52 0 00-1.04 0v.639a8.533 8.533 0 01-3.313-.875l.324-.566a.517.517 0 00-.191-.71.515.515 0 00-.71.192l-.322.561a8.345 8.345 0 01-2.428-2.427l.56-.322a.518.518 0 00.193-.711.516.516 0 00-.316-.242.499.499 0 00-.394.051l-.565.326a8.535 8.535 0 01-.876-3.316h.639a.52.52 0 100-1.039h-.64a8.526 8.526 0 01.877-3.314l.565.325a.536.536 0 00.71-.192.517.517 0 00-.192-.709l-.561-.323c.323-.49.689-.94 1.088-1.339.4-.401.85-.766 1.34-1.088l.322.56c.137.241.47.328.71.193a.522.522 0 00.19-.71l-.323-.565a8.498 8.498 0 013.314-.875v.638a.519.519 0 101.039 0v-.638a8.512 8.512 0 013.315.875l-.326.565a.525.525 0 00.191.71.539.539 0 00.71-.192l.323-.561c.489.322.939.688 1.339 1.088.399.399.764.849 1.09 1.339l-.563.323a.517.517 0 00-.191.709.538.538 0 00.71.192l.564-.325a8.504 8.504 0 01.876 3.314h-.64a.52.52 0 00-.518.52zM6.963 2.375h6.087V1.039H6.963v1.336zm10.014 5.371c3.577 3.759 3.514 9.761-.164 13.44A9.562 9.562 0 0110.006 24a9.562 9.562 0 01-6.807-2.814c-3.753-3.754-3.753-9.862 0-13.615a9.58 9.58 0 014.704-2.578V3.415h-1.46a.514.514 0 01-.52-.52V.519c0-.291.228-.519.52-.519h7.127c.292 0 .52.228.52.519v2.376c0 .292-.228.52-.52.52h-1.46v1.579a9.596 9.596 0 014.107 2.042l.823-.823-.228-.226a.52.52 0 01.736-.735l1.188 1.188a.521.521 0 010 .735.534.534 0 01-.735 0l-.227-.227-.797.798zm-6.451 6.007V9.23a.515.515 0 00-.52-.52.514.514 0 00-.52.52v4.75c0 .147.063.292.167.386l4.356 3.96c.098.088.22.134.352.134a.509.509 0 00.385-.167.53.53 0 00.139-.375.506.506 0 00-.171-.362l-4.188-3.804z"/>
</svg>
