<svg viewBox="0 0 24 20">
    <path fill-rule="evenodd" d="M23.971 11.332l-2.026-5.673A2.506 2.506 0 0019.591 4h-3.59V2.5C16 1.122 14.877 0 13.5 0h-11A2.503 2.503 0 000 2.5v14c0 .827.673 1.5 1.5 1.5h1.55a2.505 2.505 0 002.45 2 2.505 2.505 0 002.448-2h9.101a2.505 2.505 0 002.45 2 2.505 2.505 0 002.448-2h.552a1.5 1.5 0 001.5-1.5v-5a.482.482 0 00-.029-.168zM1.001 2.5C1 1.673 1.673 1 2.5 1h11c.827 0 1.5.673 1.5 1.5V13H1V2.5zM5.5 19c-.827 0-1.5-.673-1.5-1.5S4.673 16 5.5 16a1.501 1.501 0 010 3zm14 0c-.828 0-1.5-.673-1.5-1.5s.672-1.5 1.5-1.5a1.501 1.501 0 010 3zm3.5-2.5a.5.5 0 01-.5.5h-.55a2.505 2.505 0 00-2.45-2 2.505 2.505 0 00-2.449 2H7.95a2.505 2.505 0 00-2.449-2 2.505 2.505 0 00-2.449 2H1.5a.5.5 0 01-.5-.5V14h14.5a.5.5 0 00.5-.5V5h3.59c.632 0 1.2.4 1.413.995L23 11.586V16.5zM18 10V6.5a.5.5 0 00-1 0v4a.5.5 0 00.5.5H21a.5.5 0 000-1h-3z"/>
</svg>
