<svg viewBox="0 0 24 24">
    <path d="M13.504 11.871l-1.325-1.336a.212.212 0 010-.298l2.209-2.228a.213.213 0 000-.3l-1.279-1.288a.212.212 0 01.147-.36L17.788 6a.21.21 0 01.212.215l-.059 4.57a.21.21 0 01-.359.146l-1.277-1.288a.208.208 0 00-.297 0L13.8 11.871a.209.209 0 01-.296 0zM10.497 12.129l1.325 1.336a.212.212 0 010 .298l-2.209 2.228a.213.213 0 000 .3l1.277 1.288c.131.131.04.358-.146.36L6.213 18A.211.211 0 016 17.785l.06-4.57a.21.21 0 01.358-.146l1.278 1.289a.208.208 0 00.296 0l2.208-2.229a.21.21 0 01.297 0z"/>
</svg>