<svg viewBox="0 0 24 24">
    <path d="M17.767 5.068l1.469 1.481a.235.235 0 010 .331l-2.45 2.47a.236.236 0 000 .332l1.418 1.428a.235.235 0 01-.162.4l-5.025.067a.234.234 0 01-.235-.238l.065-5.067a.233.233 0 01.398-.162l1.416 1.428a.23.23 0 00.329 0l2.449-2.47a.231.231 0 01.328 0zM6.537 19.51l-1.469-1.481a.235.235 0 010-.331l2.45-2.47a.236.236 0 000-.332L6.1 13.467a.235.235 0 01.162-.4L11.287 13a.234.234 0 01.236.238l-.066 5.066a.232.232 0 01-.397.163l-1.417-1.429a.231.231 0 00-.328 0l-2.449 2.471a.232.232 0 01-.329 0z" />
</svg>