<svg viewBox="0 0 24 24">
    <path d="M21.033 18.27c.245-1.412.327-3.108.062-3.477-.151-.209-.902-.349-1.399-.44-.563-.104-1.096-.203-1.458-.427-.208-.128-.384-.343-.568-.571-.107-.132-.287-.353-.366-.396-.221-.09-.784-.019-1.241.037-.661.083-1.283.16-1.753-.034-.9-.374-3.889-2.163-3.271-3.653.265-.636 1.03-.469 1.591-.348.202.044.542.121.649.095.38-.241.745-1.267 1.038-2.091.244-.687.475-1.336.778-1.756.127-.176.328-.318.541-.469.08-.056.191-.135.277-.204-.175-.069-.533-.177-.745-.241-.371-.111-.722-.217-.961-.389-.174-.125-.316-.321-.468-.529-.058-.078-.137-.188-.208-.272-.04.057-.08.12-.111.167-.21.324-.471.728-.92.728-.691 0-1.322-.973-1.462-1.308-.179-.43-.124-1.073-.075-1.644a10.93 10.93 0 00-4.997 1.759c.373.043.733.115.939.4.372.517.26 1.32.151 2.098-.056.405-.12.865-.07 1.08.104.439.592 1.369.919 1.823.429.594 1.385 1.292 2.396 2.03C12.12 11.564 14 12.937 14 14.5c0 .449-.404.71-.729.92a3.775 3.775 0 00-.253.173c.125.333.846.839 1.338 1.185.703.493 1.368.958 1.605 1.531.255.615.181 1.794.017 2.336-.156.517-.716 1.337-1.215 2.004a11.037 11.037 0 006.27-4.378zm1.228-2.306c.477-1.23.739-2.567.739-3.964 0-6.065-4.935-11-11-11h-.029l-.01.115c-.032.368-.086.985.001 1.194.08.193.313.491.479.629.048-.067.102-.149.14-.209.209-.325.47-.729.919-.729.473 0 .777.418 1.047.787.078.107.196.269.246.308.102.073.413.167.662.242.672.202 1.433.43 1.538 1.083.086.527-.395.865-.781 1.138-.106.075-.269.189-.309.238-.218.303-.435.914-.646 1.505-.381 1.072-.775 2.181-1.495 2.625-.364.226-.842.123-1.347.013a5.86 5.86 0 00-.449-.086c.171.537 1.615 1.727 2.725 2.187.225.093.79.021 1.247-.034.66-.083 1.284-.16 1.753.034.295.123.527.409.753.685.101.124.253.311.318.352.203.125.688.215 1.114.294.809.149 1.644.304 2.029.839.269.373.357 1.04.356 1.754zM11.374.016a.5.5 0 01.21-.009C11.722.002 11.861 0 12 0c6.617 0 12 5.383 12 12 0 2.468-.749 4.764-2.031 6.674a.495.495 0 01-.139.202C19.658 21.972 16.061 24 12 24 5.383 24 0 18.617 0 12 0 5.593 5.047.343 11.374.016zm1.899 22.91c.641-.78 1.59-2.05 1.748-2.572.123-.407.152-1.336.017-1.664-.126-.304-.752-.743-1.256-1.095C12.906 16.981 12 16.346 12 15.5c0-.449.404-.71.729-.92.078-.05.197-.127.266-.183-.111-1.038-1.864-2.317-3.282-3.352-1.078-.787-2.097-1.53-2.617-2.253-.354-.487-.936-1.552-1.082-2.178-.094-.397-.023-.907.052-1.447.062-.443.165-1.184.028-1.374-.002.031-.254.005-.406-.01-.233-.023-.547-.054-.793-.174A10.98 10.98 0 001 12c0 6.065 4.935 11 11 11 .43 0 .855-.025 1.273-.073z"/>
</svg>
