<svg viewBox="0 0 24 24">
    <path fill-rule="evenodd" d="M23.48 10.705a.52.52 0 010 1.039h-8.487a.518.518 0 01-.426-.223l-1.588-2.282-2.065 6.886a.519.519 0 01-.941.122l-2.754-4.503h-6.7a.52.52 0 010-1.04H7.51a.52.52 0 01.444.249l2.298 3.759 2.042-6.804a.517.517 0 01.923-.146l2.047 2.943h8.216zm-2.846 1.367l.08-.091.803.66-.084.096a6.62 6.62 0 01-.332.366l-8.734 8.749a.515.515 0 01-.735.001L2.9 13.103a5.507 5.507 0 01-.31-.339.53.53 0 01.035-.753.511.511 0 01.726.044c.103.12.187.217.284.315L12 20.751l8.365-8.382c.097-.096.181-.194.27-.297zM1.454 10.47a.52.52 0 01-.243-.32 6.6 6.6 0 01-.214-1.642c.009-3.591 2.93-6.513 6.514-6.513 1.676 0 3.265.641 4.487 1.806a6.451 6.451 0 014.49-1.806c3.593.009 6.515 2.931 6.515 6.513 0 .537-.073 1.089-.215 1.643a.526.526 0 01-.633.373.522.522 0 01-.373-.633c.12-.467.182-.933.182-1.383 0-3.011-2.456-5.466-5.476-5.474a5.454 5.454 0 00-4.097 1.858.538.538 0 01-.78.003 5.488 5.488 0 00-4.1-1.861c-3.012 0-5.467 2.457-5.474 5.476 0 .449.06.914.18 1.381a.513.513 0 01-.055.394.51.51 0 01-.448.256.516.516 0 01-.26-.071z"/>
</svg>
