<svg viewBox="0 0 24 24">
    <path fill-rule="evenodd" d="M13.505 17.418a.52.52 0 010 1.04h-3.01a.52.52 0 110-1.04h.986v-7.172l-.618.617a.518.518 0 11-.734-.735l1.504-1.504a.517.517 0 01.567-.112c.194.08.32.268.32.479v8.427h.985zM12 6.818a.835.835 0 11-.002-1.67.835.835 0 01.002 1.67zm0 16.143c2.928 0 5.68-1.141 7.751-3.211a10.892 10.892 0 003.21-7.75 10.89 10.89 0 00-3.211-7.75A10.892 10.892 0 0012 1.039c-2.928 0-5.68 1.14-7.75 3.21A10.889 10.889 0 001.039 12c0 2.928 1.141 5.68 3.211 7.752A10.894 10.894 0 0012 22.96zm8.484-19.446A11.914 11.914 0 0124 12c0 3.206-1.248 6.219-3.514 8.486A11.924 11.924 0 0112 24a11.92 11.92 0 01-8.485-3.514A11.923 11.923 0 010 12a11.92 11.92 0 013.515-8.485A11.92 11.92 0 0112 0c3.205 0 6.219 1.248 8.484 3.515z"/>
</svg>
