<svg viewBox="0 0 24 18">
    <path d="M3.5 18a.5.5 0 01-.354-.853l17-17a.5.5 0 01.707.707l-17 17A.498.498 0 013.5 18zm1.453-4.281a.491.491 0 01-.276-.084C1.812 11.732.159 9.385.09 9.285a.5.5 0 01.028-.608C.349 8.404 5.839 2 12 2c1.039 0 2.143.193 3.281.576a.5.5 0 01.314.633.493.493 0 01-.633.314C13.928 3.176 12.931 3 12 3 7.019 3 2.297 7.777 1.146 9.027a18.286 18.286 0 004.083 3.775c.23.152.293.463.14.692a.495.495 0 01-.416.225zm7.047-.72a3.968 3.968 0 01-2.828-1.171.5.5 0 01.707-.707A2.976 2.976 0 0012 12c1.654 0 3-1.346 3-3a2.98 2.98 0 00-.879-2.121.5.5 0 01.707-.707A3.968 3.968 0 0116 9c0 2.206-1.794 4-4 4zm-3.439-2.89a.5.5 0 01-.491-.412A3.912 3.912 0 018 9c0-2.206 1.794-4 4-4 .238 0 .47.029.697.069a.5.5 0 01-.174.984A2.99 2.99 0 0012 6c-1.654 0-3 1.346-3 3 0 .18.023.353.054.523a.5.5 0 01-.493.587zM12 16c-1.829 0-3.667-.437-5.462-1.304a.499.499 0 11.434-.9C8.631 14.595 10.322 15 12 15c4.945 0 9.636-4.71 10.828-6-.785-.848-3.081-3.17-5.955-4.658a.5.5 0 11.459-.89c3.731 1.934 6.436 5.09 6.549 5.225a.5.5 0 01.001.646C23.651 9.596 18.161 16 12 16z"/>
</svg>
