<svg viewBox="0 0 24 22">
    <path fill-rule="evenodd" d="M12 13.5a.496.496 0 01-.231-.057l-11.5-6a.5.5 0 010-.886l11.5-6a.499.499 0 01.463 0l11.5 6a.5.5 0 01-.001.886l-11.5 6A.496.496 0 0112 13.5zM1.581 7L12 12.437 22.419 7 12 1.563 1.581 7zM12 17.5a.49.49 0 01-.231-.058l-11.5-6.098a.508.508 0 01-.269-.45c0-.19.104-.363.269-.45l1.672-.886a.498.498 0 01.675.215.512.512 0 01-.212.686l-.823.435L12 16.42l10.419-5.526-.822-.436a.512.512 0 01-.212-.686.5.5 0 01.675-.215l1.672.886a.512.512 0 01-.001.901l-11.5 6.098A.49.49 0 0112 17.5zm0 4a.49.49 0 01-.231-.058l-11.5-6.098a.508.508 0 01-.269-.45c0-.19.104-.363.269-.45l1.672-.886a.498.498 0 01.675.215.512.512 0 01-.212.686l-.823.435L12 20.42l10.419-5.526-.822-.436a.512.512 0 01-.212-.686.5.5 0 01.675-.215l1.672.886a.512.512 0 01-.001.901l-11.5 6.098A.49.49 0 0112 21.5z"/>
</svg>
