<svg viewBox="0 0 18 24">
    <path fill-rule="evenodd" d="M9 9.207l-1.647 1.647a.498.498 0 01-.707 0 .5.5 0 010-.707l1.647-1.646-1.647-1.647a.5.5 0 01.707-.707l1.646 1.646 1.647-1.646a.5.5 0 01.707.707L9.707 8.501l1.646 1.646a.5.5 0 01-.707.707L8.999 9.208zM9 24a.501.501 0 01-.327-.122C8.339 23.59.5 16.718.5 8.5.5 3.813 4.313 0 9 0c4.687 0 8.5 3.813 8.5 8.5 0 8.218-7.839 15.09-8.173 15.378A.501.501 0 019 24zM9 1C4.864 1 1.5 4.364 1.5 8.5c0 6.842 6.016 12.926 7.5 14.322 1.483-1.397 7.5-7.488 7.5-14.322C16.5 4.364 13.136 1 9 1zm0 13a5.506 5.506 0 01-5.5-5.5C3.5 5.467 5.968 3 9 3s5.5 2.467 5.5 5.5S12.032 14 9 14zM9 4a4.505 4.505 0 00-4.5 4.5C4.5 10.981 6.519 13 9 13s4.5-2.019 4.5-4.5S11.481 4 9 4z"/>
</svg>
