<svg viewBox="0 0 24 24">
    <path fill-rule="evenodd" d="M10.67 4.326a1.881 1.881 0 000 2.658 1.883 1.883 0 002.659 0 1.881 1.881 0 00-1.33-3.208c-.48 0-.961.184-1.328.55zM12 8.533a2.872 2.872 0 01-2.036-.842 2.882 2.882 0 010-4.072 2.882 2.882 0 014.072 0 2.884 2.884 0 010 4.072A2.872 2.872 0 0112 8.533zm-5.155 5.553a.5.5 0 01-.5-.5V12a2.848 2.848 0 012.879-2.88h5.552a2.848 2.848 0 012.88 2.88v1.586a.5.5 0 01-1 0V12c0-1.071-.81-1.88-1.88-1.88H9.224c-1.071 0-1.88.809-1.88 1.88v1.586a.5.5 0 01-.5.5zm13.38 5.052v-2.38c0-.598-.487-1.085-1.087-1.085H4.863c-.6 0-1.087.487-1.087 1.086v2.379c0 .6.488 1.087 1.087 1.087h14.275c.6 0 1.087-.487 1.087-1.087zm-1.087-4.465a2.09 2.09 0 012.087 2.086v2.379a2.09 2.09 0 01-2.087 2.087H4.863a2.09 2.09 0 01-2.087-2.087v-2.38c0-1.15.936-2.085 2.087-2.085h14.275zM7.595 16.405a.5.5 0 010 .707l-.836.836.836.836a.5.5 0 01-.707.707l-.836-.836-.836.836a.498.498 0 11-.707-.707l.836-.836-.836-.836a.5.5 0 01.707-.707l.836.836.836-.836a.5.5 0 01.707 0zm3.965 0a.5.5 0 010 .707l-.835.836.835.836a.5.5 0 01-.707.707l-.835-.836-.837.836a.498.498 0 01-.706 0 .499.499 0 010-.707l.835-.836-.835-.836a.5.5 0 01.707-.707l.835.836.837-.836a.5.5 0 01.707 0zm3.966 0a.5.5 0 010 .707l-.836.836.836.836a.5.5 0 01-.707.707l-.837-.836-.836.836a.498.498 0 11-.707-.707l.836-.836-.836-.836a.5.5 0 01.707-.707l.836.836.837-.836a.5.5 0 01.707 0zm3.965 0a.5.5 0 010 .707l-.836.836.836.836a.5.5 0 01-.707.707l-.836-.836-.836.836a.498.498 0 11-.707-.707l.836-.836-.836-.836a.5.5 0 01.707-.707l.836.836.836-.836a.5.5 0 01.707 0zM23 21.914V2.086C23 1.487 22.513 1 21.914 1H2.086C1.487 1 1 1.487 1 2.086v19.828C1 22.513 1.487 23 2.086 23h19.828c.599 0 1.086-.487 1.086-1.086zM21.914 0C23.064 0 24 .936 24 2.086v19.828c0 1.15-.936 2.086-2.086 2.086H2.086A2.089 2.089 0 010 21.914V2.086C0 .936.936 0 2.086 0h19.828z"/>
</svg>
