<svg width="24" height="24" viewBox="0 0 24 24" fill="none" xmlns="http://www.w3.org/2000/svg">
<g opacity="0.8">
<path fill-rule="evenodd" clip-rule="evenodd" d="M10.5 2C15.187 2 19 5.813 19 10.5C19 12.6747 18.1791 14.6613 16.8309 16.1662L22.8658 22.1945C23.0494 22.3794 23.0494 22.68 22.8658 22.8648C22.7744 22.9568 22.6539 23.0033 22.5334 23.0033C22.4128 23.0033 22.2923 22.9568 22.2 22.8648L16.1632 16.8335C14.6587 18.1802 12.6733 19 10.5 19C5.813 19 2 15.187 2 10.5C2 5.813 5.813 2 10.5 2ZM10.5 3C6.364 3 3 6.364 3 10.5C3 14.636 6.364 18 10.5 18C14.637 18 18 14.636 18 10.5C18 6.364 14.637 3 10.5 3Z" fill="#414547"/>
<path d="M13.1406 10.0156H10.9141V7.78906C10.9141 7.53969 10.7181 7.34375 10.4688 7.34375C10.2194 7.34375 10.0234 7.53969 10.0234 7.78906V10.0156H7.79688C7.5475 10.0156 7.35156 10.2116 7.35156 10.4609C7.35156 10.7103 7.5475 10.9062 7.79688 10.9062H10.0234V13.1328C10.0234 13.3822 10.2194 13.5781 10.4688 13.5781C10.7181 13.5781 10.9141 13.3822 10.9141 13.1328V10.9062H13.1406C13.39 10.9062 13.5859 10.7103 13.5859 10.4609C13.5859 10.2116 13.39 10.0156 13.1406 10.0156Z" fill="#414547"/>
</g>
</svg>
