<svg viewBox="0 0 24 24">
    <path fill-rule="evenodd" d="M21.914 3.965c1.15 0 2.086.936 2.086 2.087v15.069c0 1.15-.936 2.086-2.086 2.086H2.086A2.089 2.089 0 010 21.121V6.052c0-1.151.936-2.087 2.086-2.087h5.052V2.879c0-1.15.936-2.086 2.086-2.086h5.551c1.151 0 2.087.936 2.087 2.086v1.086h5.052zM23 21.121V6.052c0-.599-.487-1.087-1.086-1.087H2.086C1.487 4.965 1 5.453 1 6.052v15.069c0 .599.487 1.086 1.086 1.086h19.828c.599 0 1.086-.487 1.086-1.086zM8.138 2.879v1.086h7.724V2.879c0-.599-.487-1.086-1.087-1.086H9.224c-.599 0-1.086.487-1.086 1.086zm7.714 14.56a5.411 5.411 0 001.596-3.854 5.412 5.412 0 00-1.596-3.852A5.413 5.413 0 0012 8.137a5.412 5.412 0 00-3.851 1.596 5.412 5.412 0 00-1.596 3.852 5.41 5.41 0 001.596 3.853 5.412 5.412 0 003.851 1.596 5.413 5.413 0 003.853-1.596zM12 7.136c1.723 0 3.342.671 4.56 1.89a6.405 6.405 0 011.89 4.558 6.406 6.406 0 01-1.89 4.56 6.406 6.406 0 01-4.56 1.89 6.405 6.405 0 01-4.559-1.89 6.406 6.406 0 01-1.889-4.56c0-1.722.671-3.34 1.89-4.559a6.405 6.405 0 014.558-1.889zm2.776 5.949a.5.5 0 010 1H12.5v2.276a.5.5 0 11-1 0v-2.276H9.224a.5.5 0 110-1H11.5V10.81a.499.499 0 111 0v2.275h2.275z"/>
</svg>
