<?xml version="1.0" encoding="utf-8"?>
<!-- Generator: Adobe Illustrator 26.3.1, SVG Export Plug-In . SVG Version: 6.00 Build 0)  -->
<svg version="1.1" xmlns="http://www.w3.org/2000/svg" xmlns:xlink="http://www.w3.org/1999/xlink" x="0px" y="0px"
	 viewBox="0 0 24 24" style="enable-background:new 0 0 24 24;" xml:space="preserve">
<style type="text/css">
	.st0{display:none;}
	.st1{display:inline;opacity:0.46;fill-rule:evenodd;clip-rule:evenodd;fill:#FFFFFF;}
	.st2{display:inline;fill-rule:evenodd;clip-rule:evenodd;fill:#414547;}
	.st3{display:inline;fill:none;stroke:#2C2E30;}
	.st4{display:inline;fill:#FFFFFF;}
	.st5{display:inline;}
	.st6{fill:none;stroke:#414547;stroke-linecap:round;}
	.st7{display:inline;fill:none;stroke:#414547;stroke-linecap:round;}
	.st8{fill:#2C2E30;}
	.st9{fill:none;stroke:#2C2E30;stroke-linecap:round;}
	.st10{display:inline;fill:#2C2E30;}
</style>
<g id="Modal_rough" class="st0">
	<rect x="-10.1" y="35.8" class="st1" width="18" height="18"/>
	<path class="st2" d="M4.5,4.8h5.9c0.3,0,0.5,0.2,0.5,0.5c0,0.2-0.2,0.4-0.4,0.5l-0.1,0H4.5c-0.2,0-0.3,0.1-0.3,0.3l0,0.1v13.4
		c0,0.2,0.1,0.3,0.3,0.3l0.1,0h13.4c0.2,0,0.3-0.1,0.3-0.3l0-0.1v-6.1c0-0.3,0.2-0.5,0.5-0.5c0.2,0,0.4,0.2,0.5,0.4l0,0.1v6.1
		c0,0.7-0.5,1.2-1.2,1.3l-0.1,0H4.5c-0.7,0-1.2-0.5-1.3-1.2l0-0.1V6.1c0-0.7,0.5-1.2,1.2-1.3L4.5,4.8h5.9H4.5z M13,2.8h7.7
		c0.1,0,0.1,0,0.2,0C21,2.9,21,2.9,21.1,3c0,0,0.1,0.1,0.1,0.2l0,0l0,0c0,0,0,0.1,0,0.1l0,0.1v7.7c0,0.3-0.2,0.5-0.5,0.5
		c-0.2,0-0.5-0.2-0.5-0.4l0-0.1V4.6L10.1,14.7c-0.1,0.1-0.2,0.1-0.4,0.1c-0.1,0-0.3,0-0.4-0.1c-0.2-0.2-0.2-0.4-0.1-0.6L9.4,14
		L19.5,3.8H13c-0.3,0-0.5-0.2-0.5-0.5C12.5,3.1,12.6,2.9,13,2.8L13,2.8h7.7H13z"/>
	<path class="st2" d="M-37.3,37.7h5.9c0.3,0,0.5,0.2,0.5,0.5c0,0.2-0.2,0.4-0.4,0.5l-0.1,0h-5.9c-0.2,0-0.3,0.1-0.3,0.3l0,0.1v13.4
		c0,0.2,0.1,0.3,0.3,0.3l0.1,0h13.4c0.2,0,0.3-0.1,0.3-0.3l0-0.1v-6.1c0-0.3,0.2-0.5,0.5-0.5c0.2,0,0.4,0.2,0.5,0.4l0,0.1v6.1
		c0,0.7-0.5,1.2-1.2,1.3l-0.1,0h-13.4c-0.7,0-1.2-0.5-1.3-1.2l0-0.1V39c0-0.7,0.5-1.2,1.2-1.3L-37.3,37.7h5.9H-37.3z M-28.9,35.7
		h7.7c0.1,0,0.1,0,0.2,0c0.1,0,0.1,0.1,0.2,0.1c0,0,0.1,0.1,0.1,0.2l0,0l0,0c0,0,0,0.1,0,0.1l0,0.1V44c0,0.3-0.2,0.5-0.5,0.5
		c-0.2,0-0.5-0.2-0.5-0.4l0-0.1v-6.5l-10.1,10.1c-0.1,0.1-0.2,0.1-0.4,0.1c-0.1,0-0.3,0-0.4-0.1c-0.2-0.2-0.2-0.4-0.1-0.6l0.1-0.1
		l10.1-10.1h-6.5c-0.3,0-0.5-0.2-0.5-0.5C-29.4,36-29.2,35.8-28.9,35.7L-28.9,35.7h7.7H-28.9z"/>
	<path class="st3" d="M22.5,39.6h10.6c0.8,0,1.5,0.7,1.5,1.5v10.6c0,0.8-0.7,1.5-1.5,1.5H22.5c-0.8,0-1.5-0.7-1.5-1.5V41.1
		C21,40.3,21.7,39.6,22.5,39.6z"/>
	<path class="st3" d="M29.5,36.1h6.8c1,0,1.8,0.8,1.8,1.8v6.8c0,1-0.8,1.8-1.8,1.8h-6.8c-1,0-1.8-0.8-1.8-1.8v-6.8
		C27.8,36.9,28.5,36.1,29.5,36.1z"/>
	<rect x="25.9" y="37.8" class="st4" width="1.3" height="3.3"/>
	<rect x="32.7" y="46.9" class="st4" width="3.3" height="1.3"/>
	<g class="st5">
		<g>
			<path class="st6" d="M4,52c0,0.7-0.6,1.2-1.2,1.2H-8.4c-0.7,0-1.2-0.6-1.2-1.2V40.9c0-0.7,0.6-1.2,1.2-1.2H2.8
				c0.7,0,1.2,0.6,1.2,1.2V52z"/>
		</g>
		<g>
			<path class="st6" d="M7.4,45.1c0,0.7-0.6,1.2-1.2,1.2h-7.6c-0.7,0-1.2-0.6-1.2-1.2v-7.6c0-0.7,0.6-1.2,1.2-1.2h7.6
				c0.7,0,1.2,0.6,1.2,1.2V45.1z"/>
		</g>
	</g>
	<rect x="-58.1" y="39.6" class="st7" width="13.5" height="13.5"/>
	<g class="st5">
		<g>
			<g>
				<path class="st6" d="M56.9,39.6h-2.9c-0.7,0-1.2,0.6-1.2,1.2V52c0,0.7,0.6,1.2,1.2,1.2h11.1c0.7,0,1.2-0.6,1.2-1.2v-2.9"/>
			</g>
			<g>
				<path class="st6" d="M60,39.6h5.1c0.7,0,1.2,0.6,1.2,1.2V46"/>
			</g>
			<g>
				<path class="st6" d="M69.7,45.1c0,0.7-0.6,1.2-1.2,1.2h-7.6c-0.7,0-1.2-0.6-1.2-1.2v-7.6c0-0.7,0.6-1.2,1.2-1.2h7.6
					c0.7,0,1.2,0.6,1.2,1.2V45.1z"/>
			</g>
		</g>
		<path class="st6" d="M57.7,39.6"/>
	</g>
	<g class="st5">
		<g>
			<path class="st6" d="M84.8,39.6h-3.3c-0.7,0-1.2,0.6-1.2,1.2V52c0,0.7,0.6,1.2,1.2,1.2h11.1c0.7,0,1.2-0.6,1.2-1.2v-3.3"/>
		</g>
		<g>
			<path class="st6" d="M89.5,39.6h3.1c0.7,0,1.2,0.6,1.2,1.2v3.1"/>
		</g>
		<g>
			<path class="st6" d="M97.2,45.1c0,0.7-0.6,1.2-1.2,1.2h-7.6c-0.7,0-1.2-0.6-1.2-1.2v-7.6c0-0.7,0.6-1.2,1.2-1.2H96
				c0.7,0,1.2,0.6,1.2,1.2V45.1z"/>
		</g>
	</g>
	<path class="st7" d="M85.3,39.6"/>
	<g class="st5">
		<path class="st8" d="M23,1v22H1V1H23 M24,0H0v24h24V0L24,0z"/>
	</g>
</g>
<g id="Modal_stroke">
	<g>
		<g>
			<g>
				<path class="st9" d="M7.7,6.9H4.8c-0.7,0-1.2,0.6-1.2,1.2v11.1c0,0.7,0.6,1.2,1.2,1.2h11.1c0.7,0,1.3-0.6,1.3-1.2v-2.9"/>
			</g>
			<g>
				<path class="st9" d="M10.8,6.9h5.1c0.7,0,1.3,0.6,1.3,1.2v5.2"/>
			</g>
			<g>
				<path class="st9" d="M20.5,12.3c0,0.7-0.6,1.2-1.2,1.2h-7.6c-0.7,0-1.2-0.6-1.2-1.2V4.8c0-0.7,0.6-1.2,1.2-1.2h7.6
					c0.7,0,1.2,0.6,1.2,1.2V12.3z"/>
			</g>
		</g>
		<path class="st9" d="M8.5,6.9"/>
	</g>
</g>
<g id="Modal_outline" class="st0">
	<path class="st10" d="M17.2,15.8c-0.3,0-0.5,0.2-0.5,0.5v2.9c0,0.4-0.3,0.8-0.8,0.8H4.8C4.3,20,4,19.7,4,19.2V8.1
		c0-0.4,0.3-0.8,0.8-0.8h2.9c0.3,0,0.5-0.2,0.5-0.5S8,6.4,7.7,6.4H4.8C3.8,6.4,3,7.1,3,8.1v11.1c0,1,0.8,1.8,1.8,1.8h11.1
		c1,0,1.8-0.8,1.8-1.8v-2.9C17.7,16,17.4,15.8,17.2,15.8z M19.2,3h-7.6c-1,0-1.8,0.8-1.8,1.8v7.6c0,1,0.8,1.7,1.8,1.7h7.6
		c1,0,1.8-0.8,1.8-1.7V4.8C21,3.8,20.2,3,19.2,3z M16.7,13.1h-5c-0.4,0-0.8-0.3-0.8-0.7v-5h5c0.4,0,0.8,0.3,0.8,0.8V13.1z M20,12.3
		c0,0.4-0.3,0.7-0.8,0.7h-1.6v-5c0-1-0.8-1.8-1.8-1.8h-5V4.8c0-0.4,0.3-0.8,0.8-0.8h7.6C19.7,4,20,4.3,20,4.8V12.3z"/>
</g>
</svg>
