<svg width="24" height="24" viewBox="0 0 24 24" fill="none" xmlns="http://www.w3.org/2000/svg">
<path fill-rule="evenodd" clip-rule="evenodd" d="M20.484 3.51488C18.219 1.24788 15.205 -0.00012207 12 -0.00012207C8.795 -0.00012207 5.782 1.24788 3.515 3.51488C1.248 5.78188 0 8.79488 0 11.9999C0 15.2049 1.248 18.2189 3.515 20.4859C5.781 22.7519 8.794 23.9999 12 23.9999C15.206 23.9999 18.219 22.7519 20.486 20.4859C22.752 18.2189 24 15.2059 24 11.9999C24 8.79388 22.752 5.78088 20.484 3.51488ZM4.25 4.24988C6.32 2.17988 9.072 1.03888 12 1.03888C14.927 1.03888 17.679 2.17988 19.75 4.24988C21.82 6.31988 22.961 9.07288 22.961 11.9999C22.961 14.9279 21.82 17.6799 19.751 19.7499C17.68 21.8199 14.928 22.9609 12 22.9609C9.073 22.9609 6.32 21.8199 4.25 19.7509C2.18 17.6789 1.039 14.9269 1.039 11.9999C1.039 9.07188 2.18 6.31988 4.25 4.24988ZM12 5.46484C12.2761 5.46484 12.5 5.6887 12.5 5.96484V6.25628C13.2124 6.33867 13.8891 6.56913 14.4329 6.92905C15.1282 7.38921 15.6451 8.09404 15.6451 8.98515C15.6451 9.26129 15.4212 9.48515 15.1451 9.48515C14.869 9.48515 14.6451 9.26129 14.6451 8.98515C14.6451 8.52232 14.3838 8.09572 13.881 7.76294C13.5099 7.51732 13.0288 7.34096 12.5 7.26454V11.1715C13.243 11.2859 13.9331 11.6082 14.4738 12.051C15.1501 12.6049 15.6451 13.3946 15.6451 14.2651C15.6451 15.1566 15.1282 15.8614 14.4329 16.3215C13.8891 16.6814 13.2123 16.9116 12.5 16.994V17.2791C12.5 17.5552 12.2761 17.7791 12 17.7791C11.7239 17.7791 11.5 17.5552 11.5 17.2791V17.0114C10.7305 16.9488 10.0182 16.7091 9.46307 16.3108C8.80307 15.8374 8.35938 15.1305 8.35938 14.2651C8.35938 13.989 8.58323 13.7651 8.85938 13.7651C9.13552 13.7651 9.35938 13.989 9.35938 14.2651C9.35938 14.7545 9.60084 15.179 10.0459 15.4983C10.4146 15.7627 10.9178 15.9478 11.5 16.0073V12.1059C9.81721 11.9407 8.36802 10.7707 8.36802 9.17372C8.36802 7.57666 9.81737 6.40743 11.5 6.24234V5.96484C11.5 5.6887 11.7239 5.46484 12 5.46484ZM9.36802 9.17372C9.36802 8.28286 10.2163 7.40314 11.5 7.2468V11.1014C10.2164 10.945 9.36802 10.0648 9.36802 9.17372ZM12.5 15.9857V12.1874C13.0003 12.291 13.4677 12.5196 13.8402 12.8246C14.3618 13.2518 14.6451 13.7816 14.6451 14.2651C14.6451 14.7284 14.3837 15.155 13.881 15.4876C13.51 15.7331 13.0289 15.9094 12.5 15.9857Z" fill="#414547"/>
</svg>
