<svg viewBox="0 0 22 24">
    <path fill-rule="evenodd" d="M7.5 9.853v11.106c.015.394-.095.797-.326 1.181-.478.795-1.436 1.435-2.562 1.711-.411.101-.815.149-1.199.149C1.99 24 .83 23.343.558 22.273c-.13-.512-.036-1.053.27-1.562.478-.795 1.436-1.435 2.562-1.711 1.196-.294 2.335-.14 3.11.345V9.516v-3.73c0-.632.4-1.2.996-1.413L19.494.088A1.499 1.499 0 0121.497 1.5v16.003a.498.498 0 01-.032.177c.093.481-.007.985-.294 1.46-.477.796-1.435 1.436-2.561 1.711-.411.101-.815.15-1.199.15-1.424 0-2.585-.657-2.856-1.727-.129-.512-.036-1.053.271-1.563.478-.795 1.436-1.435 2.562-1.71 1.195-.295 2.334-.14 3.11.344V5.21L7.5 9.853zm0-1.062l12.998-4.642V1.5a.495.495 0 00-.212-.409.497.497 0 00-.457-.062L7.83 5.314a.503.503 0 00-.33.472V8.79zm-1 12.204a.827.827 0 00-.025-.173c-.153-.6-.94-.97-1.895-.97-.305 0-.627.039-.952.119-.86.21-1.604.692-1.943 1.254-.116.193-.238.49-.158.803.2.792 1.504 1.184 2.847.852.86-.21 1.604-.692 1.943-1.255a1.186 1.186 0 00.183-.623v-.007zm12.078-4.142c-.305 0-.627.038-.952.118-.86.211-1.604.692-1.943 1.255-.116.193-.238.49-.158.803.2.792 1.504 1.184 2.847.852.86-.211 1.604-.692 1.943-1.255.116-.193.238-.49.158-.803-.153-.6-.94-.97-1.895-.97z"/>
</svg>
