<svg viewBox="0 0 24 24">
    <path d="M16.85 9.17a4.29 4.29 0 011.265 3.054c0 1.153-.45 2.238-1.265 3.052a.48.48 0 11-.68-.678 3.332 3.332 0 00.985-2.374c0-.898-.35-1.741-.984-2.375a.48.48 0 01.679-.678zm2.043-2.042A7.15 7.15 0 0121 12.216c0 1.923-.75 3.729-2.107 5.089a.482.482 0 01-.68 0 .481.481 0 010-.68 6.195 6.195 0 001.827-4.41 6.193 6.193 0 00-1.826-4.408.481.481 0 01.679-.68zm.145 12.188a.51.51 0 11-.722.723l-4.266-4.267v3.008c0 .263-.129.474-.346.562a.521.521 0 01-.207.042.622.622 0 01-.436-.194l-4.458-4.459a.298.298 0 00-.079-.029l-3.349.001a.721.721 0 01-.72-.72V9.665a.72.72 0 01.72-.719h2.05L3.148 4.872a.512.512 0 01.723-.723l4.75 4.75 4.44-4.44c.185-.186.425-.244.642-.154.217.09.346.3.346.563v9.46l4.988 4.988z" />
</svg>