<svg viewBox="0 0 24 24">
    <path fill-rule="evenodd" d="M13.585 12.658a2.504 2.504 0 012.501 2.5v1.19a.52.52 0 11-1.04 0v-1.19c0-.805-.655-1.46-1.461-1.46h-3.17c-.806 0-1.461.655-1.461 1.46v1.19a.52.52 0 01-1.04 0v-1.19a2.504 2.504 0 012.501-2.5h3.17zm-9.27-4.391c.276-.276.428-.643.428-1.033 0-.39-.152-.758-.428-1.033a1.453 1.453 0 00-1.033-.429c-.39 0-.756.153-1.033.429a1.452 1.452 0 00-.428 1.033c0 .39.153.757.428 1.033.262.262.64.413 1.034.413.393 0 .77-.151 1.033-.413zm-1.033 7.016a1.462 1.462 0 00-1.033 2.493c.262.262.64.414 1.034.414a1.47 1.47 0 001.033-.413c.274-.276.426-.643.426-1.034s-.152-.758-.426-1.033a1.447 1.447 0 00-1.033-.427zm15.047 2.172a2.476 2.476 0 01.622-2.48 2.47 2.47 0 011.247-.673V9.675a2.466 2.466 0 01-1.248-.673 2.48 2.48 0 01-.733-1.768c0-.232.037-.465.111-.711l-4.436-2.42c-.04.05-.079.099-.123.144-.473.473-1.1.733-1.768.733-.67 0-1.296-.26-1.77-.733-.044-.045-.083-.094-.123-.144L5.67 6.522c.076.247.112.48.112.712a2.48 2.48 0 01-.732 1.768 2.474 2.474 0 01-1.248.673v4.647a2.41 2.41 0 011.248.654c.651.65.885 1.592.62 2.479l4.437 2.42c.038-.05.077-.099.123-.145.944-.942 2.597-.942 3.537-.001.046.047.085.096.123.146l4.438-2.42zm1.354-1.745a1.46 1.46 0 102.068 2.066 1.46 1.46 0 00-2.067-2.066zm.002-7.443c.569.57 1.498.568 2.066 0 .275-.276.427-.643.427-1.033 0-.39-.152-.757-.428-1.033a1.448 1.448 0 00-1.032-.428c-.39 0-.758.152-1.035.428a1.452 1.452 0 00-.427 1.033c0 .39.152.757.428 1.033zM12 1.017c-.391 0-.758.153-1.034.429a1.456 1.456 0 00-.428 1.033c0 .39.152.757.428 1.033.55.55 1.516.55 2.067 0 .275-.277.427-.643.427-1.033 0-.39-.152-.757-.428-1.033a1.453 1.453 0 00-1.032-.429zm1.034 21.514h-.002c.276-.275.428-.642.428-1.033 0-.39-.152-.757-.428-1.032a1.447 1.447 0 00-1.032-.428c-.391 0-.758.151-1.034.428a1.45 1.45 0 00-.428 1.032c0 .391.152.758.428 1.033.55.552 1.516.551 2.067 0zm8.203-8.229c.477.101.907.332 1.248.674a2.503 2.503 0 010 3.536c-.471.471-1.1.732-1.768.732a2.48 2.48 0 01-1.768-.733c-.046-.045-.085-.095-.123-.143l-4.44 2.42a2.48 2.48 0 01-.619 2.48A2.483 2.483 0 0112 24a2.484 2.484 0 01-1.768-.732 2.483 2.483 0 01-.62-2.48l-4.438-2.42c-.038.048-.077.098-.123.143a2.484 2.484 0 01-1.768.735 2.504 2.504 0 01-1.768-4.271 2.417 2.417 0 011.248-.653V9.675a2.466 2.466 0 01-1.248-.673 2.477 2.477 0 01-.733-1.768c0-.669.26-1.297.732-1.768a2.504 2.504 0 011.769-.711c.672 0 1.318.259 1.768.711.045.045.085.094.123.144L9.61 3.19a2.413 2.413 0 01-.111-.711c0-.668.26-1.296.732-1.769a2.508 2.508 0 011.77-.71c.673 0 1.317.259 1.768.71.473.473.732 1.101.732 1.769 0 .231-.037.465-.112.711l4.437 2.42c.038-.051.078-.099.125-.145a2.48 2.48 0 011.767-.731c.669 0 1.297.26 1.768.732.473.472.732 1.1.732 1.768a2.483 2.483 0 01-1.98 2.441v4.627zM12 8.15c-.39 0-.757.152-1.033.428a1.452 1.452 0 00-.428 1.033c0 .39.152.758.428 1.034.55.55 1.517.549 2.067 0 .276-.277.427-.644.427-1.034a1.45 1.45 0 00-.428-1.033A1.452 1.452 0 0012 8.15zm0 3.963a2.486 2.486 0 01-1.769-.734A2.48 2.48 0 019.5 9.61c0-.668.26-1.295.732-1.768a2.51 2.51 0 011.77-.71c.672 0 1.316.259 1.768.71.472.472.732 1.1.732 1.768 0 .669-.26 1.297-.733 1.768-.472.473-1.1.734-1.768.734z"/>
</svg>
