<svg viewBox="0 0 24 24">
    <path fill-rule="evenodd" d="M23.923 16.834a2.194 2.194 0 01-1.49 2.678.49.49 0 01-.061.02L7.459 23.53a2.177 2.177 0 01-1.666-.212A2.166 2.166 0 014.78 22.04a.626.626 0 01-.021-.061l-.722-2.713a.501.501 0 01.967-.258l.71 2.673a.472.472 0 01.019.053c.083.305.28.559.555.716.277.158.6.2.908.114l14.882-3.988a.507.507 0 01.047-.015l-.001-.001a1.18 1.18 0 00.718-.561c.157-.277.198-.6.114-.903l-.93-3.486a.5.5 0 01.968-.257l.928 3.48zM4.49 4.884A1.088 1.088 0 006.028 6.42a1.09 1.09 0 000-1.537 1.084 1.084 0 00-1.537 0zm.768 2.854a2.083 2.083 0 01-1.475-.61 2.088 2.088 0 010-2.951 2.09 2.09 0 012.95 0 2.09 2.09 0 010 2.95c-.406.407-.94.61-1.475.61zM1 15.36c0 .494.402.896.896.896h17.039a.89.89 0 00.885-.85l-.003-.003-4.752-6.45a1.208 1.208 0 00-.916-.49 1.21 1.21 0 00-.967.402l-3.457 3.862a.504.504 0 01-.727.02l-1.737-1.746a1.222 1.222 0 00-1.649-.065L1 14.862v.5zm.896-13.969A.897.897 0 001 2.288V13.55l3.967-3.376a2.221 2.221 0 013 .12l1.366 1.373 3.105-3.469a2.201 2.201 0 011.76-.732 2.202 2.202 0 011.672.896l3.96 5.374V2.288a.896.896 0 00-.895-.896H1.896zm18.934 13.97a1.899 1.899 0 01-1.895 1.895H1.896A1.899 1.899 0 010 15.361V2.288C0 1.243.851.392 1.896.392h17.039c1.044 0 1.895.851 1.895 1.896v13.073z"/>
</svg>
