<svg viewBox="0 0 24 20">
    <path fill-rule="evenodd" d="M24 10.122l-.125 2.594-.481-.028a2.347 2.347 0 01-1.134-.382c-.37 1.702-1.251 3.048-2.657 4v3.11c-.002.066-.002.066-.006.101l-.001.014-.033.469h-5.748l-.034-.467a1.467 1.467 0 01-.005-.118v-1.437a40.362 40.362 0 01-2.067-.03v1.467c0 .046 0 .046-.002.077v.02L11.69 20H5.904l-.017-.488v-.016c-.003-.03-.003-.03-.004-.08v-2.672c-1.146-.59-1.99-1.424-2.54-2.535H2.046C.92 14.21 0 13.241 0 12.054V9.1c0-1.187.92-2.156 2.046-2.156h.974c.15-.525.34-1.029.565-1.509l.551-3.63C4.326.56 5.417.013 6.455.643l1.09.663C9.188.445 11.178 0 13.453 0c4.545 0 7.64 2.57 8.647 6.916.45.046.814.266 1.13.62.27.312.451.694.527 1.104.056.249.084.47.084.692a2.06 2.06 0 01-.148.79H24zm-1.078.783a2.004 2.004 0 01-.262-.228l-.362-.366.363-.365a.701.701 0 00.153-.23c.045-.114.067-.24.067-.384 0-.137-.019-.282-.062-.479a1.329 1.329 0 00-.294-.63c-.178-.2-.354-.299-.58-.303a.507.507 0 00-.118.017l-.478.115-.1-.506c-.807-4.137-3.563-6.534-7.796-6.534-2.237 0-4.155.453-5.696 1.317l-.235.131-.23-.14-1.317-.8c-.455-.277-.807-.1-.89.446L4.52 5.672l-.045.148a9.084 9.084 0 00-.627 1.757l-.093.379h-1.71C1.45 7.956.96 8.472.96 9.1v2.954c0 .628.49 1.143 1.086 1.143h1.907l.128.297c.482 1.12 1.287 1.916 2.475 2.463l.287.133v2.898h3.906v-2.107l.508.03c.664.04 1.387.06 2.196.06.255 0 .314-.003.336-.008.14-.03.198-.04.43-.058l.518-.043v2.126h3.905v-3.255l.237-.146c1.517-.941 2.354-2.353 2.568-4.259l.116-1.036.7.738a2.7 2.7 0 00.355.316c.119.087.235.157.352.21l.028-.598a1.528 1.528 0 01-.076-.053zM6 9a1 1 0 110-2 1 1 0 010 2zm10.474-4.05c-.966-.374-2.079-.585-3.355-.585-1.322 0-2.544.226-3.653.635L9 3.721A11.919 11.919 0 0113.138 3c1.424 0 2.71.234 3.862.68l-.526 1.27z"/>
</svg>
