<svg viewBox="0 0 24 24">
    <path fill-rule="evenodd" d="M22.5 2h-21C.673 2 0 2.673 0 3.5v14c0 .827.673 1.5 1.5 1.5H10v1.077l-5.582.93a.5.5 0 00.164.986L10.54 21h2.919l5.958.993a.497.497 0 00.575-.411.5.5 0 00-.411-.575L14 20.077V19h8.5c.827 0 1.5-.673 1.5-1.5v-14c0-.827-.673-1.5-1.5-1.5zM13 20h-2v-1h2v1zm10-2.5a.5.5 0 01-.5.5h-21a.5.5 0 01-.5-.5v-14a.5.5 0 01.5-.5h21a.5.5 0 01.5.5v14zm-13-3a.498.498 0 00.277-.084l6-4a.501.501 0 00.001-.832l-6-4A.5.5 0 009.5 6v8a.5.5 0 00.5.5zm.5-7.566L15.099 10 10.5 13.066V6.934z"/>
</svg>
