<svg viewBox="0 0 24 24">
    <path fill-rule="evenodd" d="M4.046 4.046a2.28 2.28 0 000 3.219 2.28 2.28 0 003.219 0 2.28 2.28 0 000-3.22 2.27 2.27 0 00-1.61-.665c-.583 0-1.165.222-1.61.666zM5.655 8.93a3.27 3.27 0 01-2.316-.958 3.28 3.28 0 010-4.633 3.28 3.28 0 014.633 0 3.28 3.28 0 010 4.633 3.27 3.27 0 01-2.317.958zm14.3 11.024a2.278 2.278 0 000-3.219 2.269 2.269 0 00-1.61-.665 2.273 2.273 0 00-1.61 3.884 2.28 2.28 0 003.22 0zm-3.927-3.926a3.28 3.28 0 014.633 0 3.28 3.28 0 010 4.633 3.265 3.265 0 01-2.316.958 3.266 3.266 0 01-2.317-.958 3.28 3.28 0 010-4.633zM18.345 23A4.66 4.66 0 0023 18.345a4.66 4.66 0 00-4.655-4.656H5.655A4.661 4.661 0 001 18.345 4.66 4.66 0 005.656 23h12.689zm0-10.311A5.662 5.662 0 0124 18.345 5.662 5.662 0 0118.345 24H5.655A5.662 5.662 0 010 18.345a5.663 5.663 0 015.656-5.656h12.689zM5.655 1A4.66 4.66 0 001 5.655a4.66 4.66 0 004.655 4.656h12.69A4.661 4.661 0 0023 5.655 4.66 4.66 0 0018.344 1H5.655zm0 10.311A5.662 5.662 0 010 5.655 5.662 5.662 0 015.655 0h12.69A5.662 5.662 0 0124 5.655a5.663 5.663 0 01-5.656 5.656H5.655z"/>
</svg>
