<svg viewBox="0 0 24 24">
    <path fill-rule="evenodd" clip-rule="evenodd" d="M11.0658 13.6535C11.6658 16.257 10.1994 19.0849 7.7519 19.7857C5.2144 20.5128 0.00352915 19.7016 0 12.4025C0 8.21858 1.95342 5.67284 4.11329 4.1573C4.25231 4.06395 4.41434 4.01 4.58194 4.00126C4.74954 3.99252 4.91637 4.02933 5.06447 4.10772C5.21257 4.18611 5.33633 4.30312 5.42245 4.44615C5.50857 4.58918 5.55377 4.75281 5.5532 4.91945C5.5498 5.14412 5.46599 5.36026 5.31675 5.52917C4.45386 6.54011 3.90507 7.88744 3.90507 9.67279V9.90582C3.92095 10.4998 4.4415 10.887 4.9003 10.6504C5.11883 10.5364 5.34669 10.4408 5.58144 10.3649C8.0113 9.57994 10.4659 11.0499 11.0658 13.6535ZM23.8658 13.6535C24.4658 16.257 22.9994 19.0849 20.5519 19.7857C18.0126 20.5128 12.8035 19.7016 12.8 12.4025C12.8 8.21858 14.7534 5.67284 16.9133 4.1573C17.0523 4.06395 17.2143 4.01 17.3819 4.00126C17.5495 3.99252 17.7164 4.02933 17.8645 4.10772C18.0126 4.18611 18.1363 4.30312 18.2225 4.44615C18.3086 4.58918 18.3538 4.75281 18.3532 4.91945C18.3498 5.14412 18.266 5.36026 18.1167 5.52917C17.2538 6.54011 16.7051 7.88744 16.7051 9.67279V9.90582C16.7209 10.4998 17.2415 10.887 17.7003 10.6504C17.9188 10.5364 18.1467 10.4408 18.3814 10.3649C20.8113 9.57994 23.2659 11.0499 23.8658 13.6535Z" fill="#B2B9BF"/>
</svg>
