<svg viewBox="0 0 14 24">
    <path fill-rule="evenodd" d="M7.39 13.233l.476.476a.498.498 0 01-.353.853.502.502 0 01-.354-.146l-.123-.123-.122.123a.5.5 0 01-.707-.707l.477-.476a.498.498 0 01.706 0zM4.545 16.81l.148.15a.5.5 0 01-.706.706l-.476-.476a.5.5 0 01-.026-.678l.476-.555a.5.5 0 01.758.65l-.174.203zm2.614 2.37a.5.5 0 01.707.707l-.476.476a.503.503 0 01-.706 0l-.477-.476a.5.5 0 01.707-.707l.122.123.123-.123zm2.849-3.251l.555.555a.501.501 0 01-.029.732l-.554.477a.501.501 0 01-.705-.055.499.499 0 01.054-.704l.146-.125-.174-.174a.5.5 0 01.707-.706zM4.526 4.016a.634.634 0 11.897.897.634.634 0 01-.897-.897zm2.96.898a.634.634 0 11-.897-.897.634.634 0 01.897.897zm2.062 0a.634.634 0 11-.897-.897.634.634 0 01.897.897zM4.526 7.268a.634.634 0 11.897.897.634.634 0 01-.897-.897zm2.96.897a.634.634 0 11-.897-.897.634.634 0 01.897.897zm2.062 0a.634.634 0 11-.897-.897.634.634 0 01.897.897zm-5.022 2.276a.634.634 0 11.897.897.634.634 0 01-.897-.897zm2.96.897a.634.634 0 11-.897-.897.634.634 0 01.897.897zm2.062-.897a.634.634 0 11-.897.897.634.634 0 01.897-.897zm-2.062 6.846a.634.634 0 11-.897-.897.634.634 0 01.897.897zM11.78 22.5c.196-.208.423-.57.389-1.11l-.001-18.828c0-.877-.686-1.563-1.562-1.563H3.388c-.876 0-1.562.686-1.562 1.563v18.876c0 .876.686 1.563 1.562 1.563h7.219c.447 0 .876-.183 1.174-.5zM10.607 0a2.534 2.534 0 012.561 2.562v18.797a2.438 2.438 0 01-.658 1.826 2.618 2.618 0 01-1.903.815H3.388a2.535 2.535 0 01-2.561-2.562V2.562A2.535 2.535 0 013.388 0h7.219z"/>
</svg>
