<svg width="24" height="24" viewBox="0 0 24 24" fill="none" xmlns="http://www.w3.org/2000/svg">
<g id="Replay">
<path id="Vector" d="M12.7 0.950012C8.70001 0.950012 5.35001 3.13001 2.93001 7.23001C2.84001 7.10001 2.76001 6.96001 2.67001 6.83001C2.48001 6.52001 2.30001 6.20001 2.12001 5.88001C1.95001 5.56001 1.78001 5.23001 1.63001 4.90001C1.55001 4.73001 1.47001 4.57001 1.40001 4.40001C1.36001 4.32001 1.32001 4.23001 1.29001 4.15001C1.26001 4.07001 1.23001 3.99001 1.18001 3.92001C1.15001 3.88001 1.11001 3.84001 1.07001 3.81001C0.980007 3.74001 0.860007 3.70001 0.740007 3.70001C0.620007 3.70001 0.510007 3.73001 0.420007 3.81001L0.390007 3.84001C0.390007 3.84001 0.300007 3.95001 0.280007 4.01001C0.220007 4.17001 0.250007 4.34001 0.300007 4.49001C0.340007 4.62001 0.390007 4.76001 0.440007 4.89001C0.570007 5.30001 0.700007 5.72001 0.840007 6.13001C0.910007 6.36001 0.990007 6.60001 1.06001 6.83001C1.38001 7.84001 1.71001 8.88001 1.98001 9.70001C2.07001 9.98001 2.13001 10.29 2.26001 10.55C2.30001 10.63 2.38001 10.73 2.47001 10.77C2.54001 10.81 2.63001 10.82 2.73001 10.79C2.75001 10.79 2.78001 10.77 2.80001 10.76L3.13001 10.63L3.67001 10.42L4.37001 10.15C4.64001 10.05 4.90001 9.94001 5.17001 9.84001L6.01001 9.51001L6.83001 9.19001L7.57001 8.90001C7.77001 8.82001 7.97001 8.74001 8.17001 8.66001L8.38001 8.58001C8.45001 8.55001 8.52001 8.52001 8.59001 8.50001C8.66001 8.47001 8.73001 8.45001 8.80001 8.42001C8.88001 8.38001 8.96001 8.33001 9.02001 8.26001C9.10001 8.15001 9.14001 8.00001 9.11001 7.87001C9.05001 7.61001 8.77001 7.43001 8.51001 7.49001L6.98001 7.85001C6.98001 7.85001 5.40001 8.14001 4.59001 8.19001C6.10001 5.65001 8.66001 2.89001 12.69 2.89001C17.71 2.89001 21.8 6.98001 21.8 12C21.8 17.02 17.71 21.11 12.69 21.11C11.87 21.11 11.05 21 10.26 20.78C9.49001 20.57 8.74001 20.25 8.06001 19.84C7.38001 19.43 6.75001 18.94 6.19001 18.37C6.03001 18.21 5.89001 18.02 5.74001 17.85C5.55001 17.63 5.38001 17.4 5.21001 17.16C5.13001 17.05 5.06001 16.93 4.99001 16.82C4.81001 16.54 4.64001 16.25 4.50001 15.95L4.31001 15.55C4.11001 15.11 3.65001 14.86 3.16001 15C3.01001 15.04 2.87001 15.12 2.75001 15.23C2.61001 15.36 2.51001 15.53 2.47001 15.72C2.45001 15.82 2.44001 15.92 2.45001 16.02C2.46001 16.15 2.52001 16.29 2.57001 16.41C2.67001 16.66 2.79001 16.91 2.92001 17.15C3.29001 17.85 3.74001 18.52 4.25001 19.13C4.50001 19.43 4.77001 19.72 5.06001 19.99C5.34001 20.26 5.64001 20.52 5.96001 20.76C6.27001 21 6.60001 21.23 6.93001 21.43C7.27001 21.64 7.62001 21.83 7.98001 21.99C8.34001 22.16 8.71001 22.31 9.09001 22.44C9.47001 22.57 9.86001 22.68 10.25 22.77C10.65 22.86 11.05 22.93 11.46 22.97C11.87 23.02 12.29 23.04 12.7 23.04C18.79 23.04 23.75 18.08 23.75 11.99C23.75 5.90001 18.79 0.950012 12.7 0.950012Z" fill="#414547"/>
</g>
</svg>
