<svg viewBox="0 0 24 20">
    <path fill-rule="evenodd" d="M17 12.121v-6.5a.5.5 0 011 0v6.5h3.5c1.378 0 2.5 1.122 2.5 2.5v2c0 1.379-1.122 2.5-2.5 2.5h-19a2.503 2.503 0 01-2.5-2.5v-2c0-1.378 1.122-2.5 2.5-2.5H17zm-14.5 1c-.827 0-1.5.673-1.5 1.5v2c0 .827.673 1.5 1.5 1.5h19c.827 0 1.5-.673 1.5-1.5v-2c0-.827-.673-1.5-1.5-1.5h-19zm1 3.5a1 1 0 110-2 1 1 0 010 2zm3 0a1 1 0 110-2 1 1 0 010 2zm3 0a1 1 0 110-2 1 1 0 010 2zm3 0a1 1 0 110-2 1 1 0 010 2zm8-.5h-5a.5.5 0 010-1h5a.5.5 0 010 1zm-4.414-8.586a.502.502 0 01-.354-.146A2.484 2.484 0 0115 5.621c0-.668.26-1.296.732-1.768a.5.5 0 01.707.707c-.283.284-.439.66-.439 1.061 0 .401.156.777.439 1.061a.5.5 0 01-.353.853zm2.828 0a.5.5 0 01-.354-.853c.284-.283.44-.66.44-1.061 0-.401-.156-.777-.439-1.061a.5.5 0 01.707-.707c.472.472.732 1.1.732 1.768 0 .668-.26 1.296-.732 1.768a.498.498 0 01-.354.146zM14.671 8.95a.502.502 0 01-.354-.146 4.506 4.506 0 010-6.364.5.5 0 01.707.707 3.505 3.505 0 000 4.95.5.5 0 01-.353.853zm5.658 0a.5.5 0 01-.354-.853 3.505 3.505 0 000-4.95.5.5 0 01.707-.707 4.506 4.506 0 010 6.364.5.5 0 01-.353.146zm-7.072 1.414a.502.502 0 01-.354-.146 6.508 6.508 0 010-9.192.5.5 0 01.707.707 5.505 5.505 0 000 7.778.5.5 0 01-.353.853zm8.486 0a.5.5 0 01-.354-.853 5.505 5.505 0 000-7.778.5.5 0 01.707-.707 6.508 6.508 0 010 9.192.498.498 0 01-.353.146z"/>
</svg>
