<svg viewBox="0 0 24 18">
    <path fill-rule="evenodd" d="M9.188 10.434a1 1 0 11-.55-.265l-.759-.365c-.533.241-.879.765-.879 1.356 0 .827.673 1.5 1.5 1.5s1.5-.673 1.5-1.5c0-.117-.016-.237-.047-.357l-.765-.369zm9.825-2.609l2.003.802 1.326-.442a.501.501 0 01.382.027l1 .5a.5.5 0 01.231.654l-2.5 5.5a.496.496 0 01-.455.294.505.505 0 01-.224-.053l-1-.5a.507.507 0 01-.251-.29l-.441-1.324-1.924-1.155-.28.608a1.492 1.492 0 01-1.363.872c-.222 0-.442-.05-.649-.15l-3.872-1.863A2.505 2.505 0 019 13.61v3.55a.5.5 0 01-.5.5h-8a.5.5 0 010-1H8v-3.05a2.504 2.504 0 01-2-2.45c0-.73.314-1.397.835-1.859L3.17 7.537a1.507 1.507 0 01-.712-1.98L4.62.873A1.49 1.49 0 015.475.09a1.485 1.485 0 011.158.06L18.33 5.782a1.507 1.507 0 01.712 1.98l-.03.063zm-.42.91l-1.011 2.19 2.175 1.306a.5.5 0 01.218.27l.435 1.305.351.175 2.086-4.59-.384-.191-1.304.434a.502.502 0 01-.344-.01l-2.222-.89zm-7.991 1.27l4.698 2.263c.123.059.26.066.386.02a.489.489 0 00.285-.261l2.162-4.684a.503.503 0 00-.237-.66L6.199 1.05a.496.496 0 00-.671.24L3.366 5.977a.503.503 0 00.237.66l4.511 2.172a.5.5 0 01.011.005l2.433 1.171a.5.5 0 01.044.022z"/>
</svg>
