<svg viewBox="0 0 24 20">
    <path fill-rule="evenodd" d="M5.792 14.625h5.292v-2.918H5.792v2.918zm5.812-3.959c.287 0 .521.233.521.52v3.96a.522.522 0 01-.521.52H5.271a.522.522 0 01-.521-.52v-3.96c0-.287.234-.52.521-.52h6.333zm.917-6.333h4.6l-1.458-2.917h-3.142v2.917zM22.92 5.375h-4.462v2.15c.477.29 1.004.444 1.527.444a2.975 2.975 0 002.935-2.594zM1.471 4.333h4.243l1.459-2.917H3.768L1.471 4.333zm15.946 3.388V5.375h-4.896v2.272a2.957 2.957 0 002.473 1.332 2.97 2.97 0 002.423-1.258zm.868-3.388h4.184l-2.24-2.917h-3.402l1.458 2.917zM6.584 7.723A2.971 2.971 0 009.005 8.98c.999 0 1.921-.497 2.474-1.332V5.375H6.584v2.348zm12.145 2.943c.288 0 .521.234.521.521v7.396h.542V9a3.937 3.937 0 01-1.679-.474 3.971 3.971 0 01-3.119 1.495 4.008 4.008 0 01-2.992-1.345 3.99 3.99 0 01-2.996 1.345 3.977 3.977 0 01-3.121-1.495A3.92 3.92 0 014.208 9v9.583h8.459v-7.396c0-.287.233-.521.521-.521h5.541zM6.879 4.333h4.6V1.416H8.337L6.879 4.333zM5.542 5.375H1.08a2.976 2.976 0 002.935 2.593c.524 0 1.05-.153 1.527-.443v-2.15zm8.166 13.208h4.5v-6.875h-4.5v6.875zM23.996 4.818l.004.036v.155a4.003 4.003 0 01-3.167 3.905v10.19a.521.521 0 01-.52.521H3.688a.521.521 0 01-.521-.521V8.914A4.003 4.003 0 010 5.009v-.155c0-.031.006-.056.011-.075a.514.514 0 01.1-.402L3.106.574a.52.52 0 01.409-.199h16.97c.161 0 .316.076.413.203l2.995 3.898c.073.096.11.217.103.342z"/>
</svg>
