<svg viewBox="0 0 18 24">
    <path fill-rule="evenodd" d="M16.862 21.931V2.069A1.11 1.11 0 0015.753.96H2.246a1.11 1.11 0 00-1.108 1.109v19.862a1.11 1.11 0 001.108 1.109h13.507a1.11 1.11 0 001.109-1.109zM15.753 0c1.14 0 2.069.929 2.069 2.069v19.862A2.071 2.071 0 0115.753 24H2.246a2.07 2.07 0 01-2.068-2.069V2.069C.178.929 1.106 0 2.246 0h13.507zm-3.44 19.285a4.69 4.69 0 000-6.624 4.671 4.671 0 00-3.314-1.37 4.672 4.672 0 00-3.312 1.37 4.69 4.69 0 000 6.624 4.69 4.69 0 006.625 0zm-3.314-8.957a5.61 5.61 0 013.992 1.654 5.611 5.611 0 011.652 3.99 5.611 5.611 0 01-1.652 3.992A5.61 5.61 0 019 21.616a5.606 5.606 0 01-3.99-1.652 5.608 5.608 0 01-1.653-3.991c0-1.508.587-2.926 1.653-3.992A5.606 5.606 0 019 10.33zm.504 6.148a.714.714 0 000-1.007.71.71 0 00-1.007 0 .714.714 0 000 1.007.714.714 0 001.007 0zM7.817 14.79a1.676 1.676 0 012.365 0A1.671 1.671 0 019 17.643c-.428 0-.856-.163-1.183-.488a1.676 1.676 0 010-2.365zM7.654 3.9a1.906 1.906 0 000 2.692 1.904 1.904 0 100-2.692zM9 8.11a2.856 2.856 0 01-2.025-.837 2.868 2.868 0 010-4.05c1.081-1.082 2.968-1.082 4.05 0a2.868 2.868 0 010 4.05A2.857 2.857 0 019 8.11z"/>
</svg>
