<svg viewBox="0 0 24 24">
    <path fill-rule="evenodd" d="M19.744 19.744c-4.27 4.27-11.218 4.27-15.488 0a10.89 10.89 0 01-2.044-2.848h5.526c.896 0 1.708-.557 2.025-1.406A2.344 2.344 0 0112 13.896c.534 0 1.034.176 1.437.482a2.349 2.349 0 01.807 1.132 2.16 2.16 0 002.019 1.386h5.524a10.89 10.89 0 01-2.043 2.848m-.046-10.375a.554.554 0 00-.777-.095l-5.123 4.01A3.49 3.49 0 0012 12.788c-1.498 0-2.82.946-3.282 2.333a1.06 1.06 0 01-.98.667h-6a10.971 10.971 0 01-.658-3.234h2.632a.554.554 0 000-1.108H1.08a10.89 10.89 0 012.804-6.778L5.766 6.55a.556.556 0 00.784 0 .554.554 0 000-.783L4.668 3.884a10.891 10.891 0 016.778-2.804v2.631a.555.555 0 001.107 0v-2.63a10.885 10.885 0 016.779 2.804L17.53 5.687a.554.554 0 10.782.784l1.804-1.803a10.89 10.89 0 012.803 6.778h-2.63a.553.553 0 100 1.108h2.63c-.055 1.1-.273 2.19-.657 3.234h-6c-.43 0-.833-.274-.973-.648a3.4 3.4 0 00-.63-1.122l4.944-3.871a.552.552 0 00.095-.778m4.225 2.897A.542.542 0 0024 12a.545.545 0 00-.077-.267 11.889 11.889 0 00-3.479-8.174v-.002l-.003-.002A11.89 11.89 0 0012.266.078.536.536 0 0012 0a.533.533 0 00-.266.078 11.887 11.887 0 00-8.178 3.479 11.887 11.887 0 00-3.479 8.177A.531.531 0 000 12c0 .098.032.186.077.265.03 1.378.294 2.748.797 4.049 0 .01-.006.019-.006.027 0 .166.074.308.187.41a11.87 11.87 0 002.501 3.693A11.9 11.9 0 0012 23.935a11.9 11.9 0 008.443-3.491 11.862 11.862 0 002.5-3.692.545.545 0 00.19-.41c0-.01-.007-.02-.007-.03.502-1.3.765-2.67.797-4.046"/>
</svg>
