<svg viewBox="0 0 24 24">
    <path d="M4.257 19.744c4.27 4.27 11.217 4.27 15.488 0a10.89 10.89 0 002.043-2.848h-5.525a2.164 2.164 0 01-2.026-1.406A2.344 2.344 0 0012 13.896c-.533 0-1.034.176-1.437.482a2.349 2.349 0 00-.807 1.132 2.16 2.16 0 01-2.018 1.386H2.213a10.89 10.89 0 002.044 2.848zm.045-10.375a.554.554 0 01.777-.095l5.123 4.01A3.49 3.49 0 0112 12.788c1.499 0 2.82.946 3.282 2.333.147.393.55.667.98.667h6.001c.384-1.045.602-2.135.657-3.234h-2.63a.554.554 0 010-1.108h2.631a10.89 10.89 0 00-2.803-6.778L18.234 6.55a.556.556 0 01-.784 0 .554.554 0 010-.783l1.883-1.883a10.891 10.891 0 00-6.779-2.804v2.631a.555.555 0 01-1.107 0v-2.63a10.885 10.885 0 00-6.778 2.804L6.47 5.687a.554.554 0 11-.783.784L3.885 4.668a10.89 10.89 0 00-2.804 6.778h2.63a.553.553 0 110 1.108h-2.63c.055 1.1.273 2.19.657 3.234h6c.43 0 .833-.274.973-.648a3.4 3.4 0 01.63-1.122l-4.944-3.871a.552.552 0 01-.095-.778zM.077 12.266A.542.542 0 010 12c0-.098.033-.186.077-.267a11.889 11.889 0 013.48-8.174v-.002l.002-.002A11.89 11.89 0 0111.734.078.536.536 0 0112 0c.1 0 .186.032.266.078a11.887 11.887 0 018.178 3.479 11.887 11.887 0 013.479 8.177c.046.08.077.168.077.266a.529.529 0 01-.077.265 11.937 11.937 0 01-.797 4.049c0 .01.006.019.006.027a.548.548 0 01-.187.41 11.87 11.87 0 01-2.5 3.693A11.9 11.9 0 0112 23.935a11.9 11.9 0 01-8.443-3.491 11.862 11.862 0 01-2.5-3.692.545.545 0 01-.189-.41c0-.01.006-.02.006-.03-.502-1.3-.765-2.67-.797-4.046z" fill-rule="evenodd"/>
</svg>
