<svg viewBox="0 0 24 16">
    <path fill-rule="evenodd" d="M6.711 10.888a6.773 6.773 0 0110.578 0A4.701 4.701 0 0124 15.13a.522.522 0 01-1.043 0 3.656 3.656 0 00-5.07-3.366c.57.992.896 2.142.896 3.366a.522.522 0 01-1.044 0A5.745 5.745 0 0012 9.391a5.745 5.745 0 00-5.74 5.74.522.522 0 01-1.043 0c0-1.225.327-2.375.897-3.368a3.654 3.654 0 00-5.07 3.367.522.522 0 01-1.044 0 4.701 4.701 0 016.711-4.242zM4.77 9.391A2.612 2.612 0 012.16 6.783a2.612 2.612 0 012.609-2.61 2.612 2.612 0 012.608 2.61A2.612 2.612 0 014.77 9.39zm0-4.174c-.863 0-1.565.703-1.565 1.566 0 .863.702 1.565 1.565 1.565s1.565-.702 1.565-1.565-.702-1.566-1.565-1.566zM12 7.304a3.656 3.656 0 01-3.652-3.652A3.656 3.656 0 0112 0a3.656 3.656 0 013.652 3.652A3.656 3.656 0 0112 7.304zm0-6.26a2.612 2.612 0 00-2.609 2.608A2.612 2.612 0 0012 6.261a2.612 2.612 0 002.609-2.609A2.612 2.612 0 0012 1.043zm7.304 8.347a2.612 2.612 0 01-2.608-2.608 2.612 2.612 0 012.608-2.61 2.612 2.612 0 012.609 2.61 2.612 2.612 0 01-2.609 2.608zm0-4.174c-.863 0-1.565.703-1.565 1.566 0 .863.702 1.565 1.565 1.565s1.566-.702 1.566-1.565-.703-1.566-1.566-1.566z"/>
</svg>
