<svg viewBox="0 0 22 22">
    <path fill-rule="evenodd" d="M13.31 7.425a.476.476 0 01-.246-.416V5.67c-1.443.003-5.362 0-5.815 0-.124.151-.49 1.07-.49 2.789 0 1.774.386 2.66.518 2.795l5.79-.006c0-.55-.003-1.336-.003-1.336a.475.475 0 01.729-.405l2.174 1.358V6.053l-2.174 1.359a.475.475 0 01-.482.013zm-6.103 4.777c-1.361 0-1.4-3.36-1.4-3.742 0-.384.039-3.742 1.4-3.742.235 0 5.726.003 6.33 0l.08.015c.092.021.179.043.26.123.088.09.14.213.14.338v.955l2.175-1.358a.476.476 0 01.729.403v6.533a.48.48 0 01-.246.417.501.501 0 01-.233.058.463.463 0 01-.25-.072l-2.174-1.358v.961a.48.48 0 01-.478.47H7.207zM4.832 16.33c.262 0 .476.213.476.477v3.356l4.608-3.727a.48.48 0 01.3-.105h8.404a2.43 2.43 0 002.427-2.427V3.744a2.43 2.43 0 00-2.427-2.428H3.38c-.647 0-1.256.252-1.714.711a2.407 2.407 0 00-.712 1.715v10.162A2.429 2.429 0 003.38 16.33h1.452zM18.622.363A3.382 3.382 0 0122 3.743v10.16a3.382 3.382 0 01-3.379 3.38h-8.235L5.132 21.53a.476.476 0 01-.777-.37v-3.879H3.38A3.383 3.383 0 010 13.904V3.742A3.383 3.383 0 013.38.363H18.62z"/>
</svg>
