<svg viewBox="0 0 24 24">
    <path fill-rule="evenodd" d="M14.521 11.67l8.708 8.471c.492.493.771 1.169.771 1.858A2.002 2.002 0 0122 24a2.6 2.6 0 01-1.853-.768l-8.143-8.37a.505.505 0 01-.064.078c-.284.283-.44.659-.44 1.06 0 .127-.05.251-.137.344-.1.106-6.292 6.79-6.292 6.79A2.903 2.903 0 013 24c-.77 0-1.52-.311-2.062-.853l-.093-.097A2.885 2.885 0 010 21c0-.77.311-1.52.853-2.061l6.898-6.225a.5.5 0 01.335-.129h.002c.399 0 .775-.156 1.059-.439a.498.498 0 01.126-.092l-1.789-1.839a1.496 1.496 0 00-1.462-.402C5.548 9.94 5.223 10 5 10a5.023 5.023 0 01-3.639-1.57A4.964 4.964 0 01.009 4.699a.5.5 0 01.26-.41.537.537 0 01.517 0L3.521 5.93a2.715 2.715 0 001.465-2.155L1.931 1.941a.5.5 0 01-.057-.817A4.954 4.954 0 014.894.001c1.234-.022 2.438.485 3.395 1.44C9.516 2.667 10.011 4.277 9.722 6.1c-.078.49.083.983.431 1.321l2.155 2.096a.499.499 0 01.089-.12L18 3.793V2.5a.5.5 0 01.276-.447l4-2a.497.497 0 01.577.094l1 1a.5.5 0 01.094.577l-2 4A.5.5 0 0121.5 6h-1.293l-5.604 5.604a.499.499 0 01-.082.066zm-.699-.68a.5.5 0 01.074-.093l5.75-5.75A.5.5 0 0120 5h1.191l1.7-3.401-.49-.49L19 2.809V4c0 .133-.053.26-.146.354l-5.75 5.75a.5.5 0 01-.108.082l.826.805zm-2.5 3.171L9.94 12.739a.502.502 0 01-.086.115 2.474 2.474 0 01-1.566.724l-6.746 6.086c-.338.337-.542.83-.542 1.333 0 .514.199.993.56 1.354l.094.098c.703.703 1.982.707 2.697-.008l6.157-6.646a2.48 2.48 0 01.725-1.563.501.501 0 01.09-.071zM6.41 8.762a2.5 2.5 0 011.791.756L20.859 22.53c.301.302.708.47 1.141.47.552 0 1-.449 1-1 0-.433-.169-.84-.475-1.146L9.454 8.139a2.513 2.513 0 01-.722-2.194c.24-1.515-.146-2.792-1.151-3.795C6.82 1.389 5.918.981 4.915 1.001c-.63.014-1.24.18-1.798.487l2.64 1.583A.5.5 0 016 3.5a3.716 3.716 0 01-2.065 3.342l-.211.105a.504.504 0 01-.481-.018L1.045 5.61a3.967 3.967 0 001.044 2.133A3.963 3.963 0 005 9c.059 0 .25-.015.763-.153a2.51 2.51 0 01.647-.085z"/>
</svg>
