<svg viewBox="0 0 24 24">
    <path fill-rule="evenodd" d="M9.556 1A8.556 8.556 0 001 9.556v4.888A8.556 8.556 0 009.556 23h4.888A8.556 8.556 0 0023 14.444V9.556A8.556 8.556 0 0014.444 1H9.556zM9.6 0h4.8A9.6 9.6 0 0124 9.6v4.8a9.6 9.6 0 01-9.6 9.6H9.6A9.6 9.6 0 010 14.4V9.6A9.6 9.6 0 019.6 0zM12 14a1 1 0 100 2 1 1 0 000-2zM7.404 9.904a.5.5 0 00.707.707 5.505 5.505 0 017.778 0 .502.502 0 00.707 0 .5.5 0 000-.707 6.508 6.508 0 00-9.192 0zm1.414 1.414a.5.5 0 00.707.707 3.505 3.505 0 014.95 0 .502.502 0 00.707 0 .5.5 0 000-.707 4.506 4.506 0 00-6.364 0zm1.414 1.415a.5.5 0 00.707.707c.566-.566 1.555-.566 2.121 0a.502.502 0 00.707 0 .5.5 0 000-.707c-.943-.944-2.592-.944-3.535 0z"/>
</svg>
